<?xml version="1.0" encoding="UTF-8"?>
<!DOCTYPE svg PUBLIC "-//W3C//DTD SVG 1.1//EN" "http://www.w3.org/Graphics/SVG/1.1/DTD/svg11.dtd">
<!-- Creator: CorelDRAW -->
<svg xmlns="http://www.w3.org/2000/svg" xml:space="preserve" width="111.113mm" height="103.445mm" version="1.1" style="shape-rendering:geometricPrecision; text-rendering:geometricPrecision; image-rendering:optimizeQuality; fill-rule:evenodd; clip-rule:evenodd"
viewBox="0 0 116.65 108.6"
 xmlns:xlink="http://www.w3.org/1999/xlink"
 xmlns:xodm="http://www.corel.com/coreldraw/odm/2003">
 <defs>
  <style type="text/css">
   <![CDATA[
    .fil7 {fill:#FEFEFE}
    .fil3 {fill:#F58634}
    .fil5 {fill:#FBE1A7}
    .fil6 {fill:#D4E3E5}
    .fil4 {fill:#B75D38}
    .fil1 {fill:#C6D5D6}
    .fil2 {fill:#A7B6B7}
    .fil0 {fill:#282828}
   ]]>
  </style>
 </defs>
 <g id="Camada_x0020_1">
  <metadata id="CorelCorpID_0Corel-Layer"/>
  <g id="_1967948411232">
   <path class="fil0" d="M36.04 17.52c19.39,1.42 10.86,30.51 10.86,30.51 4.52,-4.78 4.91,-10.6 4.91,-10.6 2.59,35.68 -16.55,36.97 -16.55,36.97 -9.7,0.26 -1.36,-15.71 -1.36,-15.71 -0.84,4.65 2.39,8.34 2.39,8.34 -1.29,-5.69 4.27,-19.78 4.27,-19.78 6.94,-19.75 -18.27,-17.11 -29.15,-17.9l20.88 -15c1.94,-1.36 3.75,-8.98 3.75,-8.98 3.55,6.46 0,12.15 0,12.15zm-11.12 16.59c26.96,-0.83 0.5,24.75 -2.26,36.54 -7.25,-14.19 8.94,-21.02 7.99,-28.69 -0.28,-2.29 -1.95,-4.05 -5.21,-4.19 -12.88,-0.55 -17.51,-5.64 -17.51,-5.64 6.37,2.42 11.63,2.15 17,1.98zm-1.94 6.16c0,0 3.81,1.23 0.58,4.33 0,0 -21.14,15.64 -22.56,29.6 0,0 -8.27,25.47 24.17,33.61 29.32,6.49 68.04,-29.62 90.75,-7.89 0,0 7.63,-31.8 -26.63,-43.43 0,0 14.68,12.35 15.77,25.21 0,0 -21.33,-2.07 -42.66,9.82 0,0 18.87,-4.91 29.99,-2.59 -25.13,3.93 -73.99,28.53 -85.32,-7.37 0,0 7.04,14.65 34.9,11.51 0,0 -18.74,-2.2 -24.69,-11.51 0,0 18.36,7.76 38.91,-9.05 0,0 14.61,-15.06 30.51,-16.42 0,0 -17.84,-3.94 -33.87,10.02 0,0 16.42,-33.48 -10.34,-53 0,0 1.55,-9.05 -8.66,-13.12 0,0 -1.29,10.92 -3.36,12.35 -9.7,3.97 -17.37,15.78 -28.96,14.35 -2.11,-0.38 -1.68,0.69 -0.81,2.41 1.64,3.27 7.36,11.79 22.27,11.16z"/>
   <path class="fil1" d="M22.66 70.64c2.77,-11.79 29.23,-37.37 2.26,-36.54 -5.37,0.17 -10.63,0.44 -17,-1.98 0,0 4.63,5.1 17.51,5.64 3.26,0.14 4.93,1.9 5.21,4.19 0.95,7.68 -15.24,14.5 -7.99,28.69z"/>
   <path class="fil2" d="M30.65 41.95c0.95,7.68 -15.24,14.5 -7.99,28.69 2.05,-8.75 17.17,-25.11 13.78,-32.61 0.23,9.14 -6.96,12.44 -6.96,12.44 6.96,-9.83 0.15,-12.07 -2.82,-12.57 2.45,0.48 3.73,2.07 3.97,4.05z"/>
   <path class="fil3" d="M40.57 47.25c0,0 -5.56,14.09 -4.27,19.78 0,0 -3.23,-3.68 -2.39,-8.34 0,0 -8.34,15.96 1.36,15.71 0,0 19.13,-1.29 16.55,-36.97 0,0 -0.39,5.82 -4.91,10.6 0,0 8.53,-29.08 -10.86,-30.51 0,0 3.55,-5.69 0,-12.15 0,0 -1.81,7.63 -3.75,8.98l-20.88 15c10.88,0.8 36.09,-1.85 29.15,17.9z"/>
   <path class="fil4" d="M40.57 47.25c0,0 -5.56,14.09 -4.27,19.78 0,0 -3.23,-3.68 -2.39,-8.34 0,0 -8.34,15.96 1.36,15.71 0,0 19.13,-1.29 16.55,-36.97 0,0 -0.39,5.82 -4.91,10.6 0,0 3.63,-12.36 0.78,-21.36 1.25,12.63 -2.8,18.39 -2.8,18.39 0,-17.71 -22.01,-15.28 -22.01,-15.28 11,0.64 22.71,3.24 17.7,17.48z"/>
   <path class="fil5" d="M12.63 28.47c3.91,-2.7 16.39,-10.52 24.87,-6.56 0,0 -2.07,-2.26 -6.21,-2.39 0,0 12.52,-1.1 16.38,7.14 -1.52,-4.8 -4.89,-8.65 -11.63,-9.14 0,0 3.55,-5.69 0,-12.15 0,0 -1.81,7.63 -3.75,8.98l-19.66 14.12z"/>
   <path class="fil3" d="M56.21 72.52c-20.55,16.8 -38.91,9.05 -38.91,9.05 5.95,9.31 24.69,11.51 24.69,11.51 -27.87,3.15 -34.9,-11.51 -34.9,-11.51 11.33,35.9 60.18,11.3 85.32,7.37 -11.12,-2.33 -29.99,2.59 -29.99,2.59 21.33,-11.89 42.66,-9.82 42.66,-9.82 -1.09,-12.86 -15.77,-25.21 -15.77,-25.21 -0.79,-0.27 -2.59,-0.39 -2.59,-0.39 -15.9,1.36 -30.51,16.42 -30.51,16.42z"/>
   <path class="fil6" d="M89.6 67.15c0,0 -7.23,0.16 -16.02,4.94 0,0 10.33,1.52 17.96,4.88 0,0 -14.14,3.94 -22.06,11.08 18.73,-8 35.59,-6.36 35.59,-6.36 -1.09,-12.86 -15.77,-25.21 -15.77,-25.21 -0.79,-0.27 -2.59,-0.39 -2.59,-0.39 -6.75,0.58 -13.27,3.62 -18.54,6.94 0,0 14.71,-0.29 21.43,4.11z"/>
   <path class="fil4" d="M41.99 93.07c-27.87,3.15 -34.9,-11.51 -34.9,-11.51 9.62,30.48 46.29,17.35 72.52,10.28 -3.56,-2.44 -9.79,-1.92 -9.79,-1.92 -4.36,0.8 -7.41,1.59 -7.41,1.59 2.36,-1.32 4.73,-2.47 7.06,-3.46 -33.44,6.48 -52.18,-6.49 -52.18,-6.49 5.95,9.31 24.69,11.51 24.69,11.51z"/>
   <path class="fil2" d="M92.4 88.94c-6.65,-1.39 -16.08,-0.19 -22.58,1 0,0 6.23,-0.52 9.79,1.92 4.67,-1.26 9,-2.32 12.8,-2.92z"/>
   <path class="fil2" d="M81.66 84c13.28,-3.28 23.41,-2.3 23.41,-2.3 -0.59,-6.97 -5.17,-13.79 -9.24,-18.57 2.22,3.6 3.99,13.33 3.99,13.33 -1.6,1.57 -10.43,4.86 -18.15,7.54z"/>
   <path class="fil5" d="M56.21 72.52c-20.55,16.8 -38.91,9.05 -38.91,9.05 0,0 20.34,10.92 46.84,-7.44 0,0 -3.43,4.46 -7.95,6.2 5.51,-1.38 10.89,-4.85 15.91,-8.5 0.82,-0.59 1.62,-1.19 2.42,-1.79 2.62,-1.96 5.12,-3.87 7.47,-5.46 -6.51,-1.71 -13.81,-1.55 -13.81,-1.55 -7.13,4.49 -11.97,9.48 -11.97,9.48z"/>
   <path class="fil7" d="M68.17 63.04c0,0 7.3,-0.16 13.81,1.55 5.42,-3.65 10.01,-5.54 13.32,-2.07 -3.23,-3.7 -6.01,-6.04 -6.01,-6.04 -0.79,-0.27 -2.59,-0.39 -2.59,-0.39 -6.75,0.58 -13.27,3.62 -18.54,6.94z"/>
  </g>
 </g>
</svg>
