<?xml version="1.0" encoding="UTF-8"?>
<!DOCTYPE svg PUBLIC "-//W3C//DTD SVG 1.1//EN" "http://www.w3.org/Graphics/SVG/1.1/DTD/svg11.dtd">
<!-- Creator: CorelDRAW -->
<svg xmlns="http://www.w3.org/2000/svg" xml:space="preserve" width="278.353mm" height="64.475mm" version="1.1" style="shape-rendering:geometricPrecision; text-rendering:geometricPrecision; image-rendering:optimizeQuality; fill-rule:evenodd; clip-rule:evenodd"
viewBox="0 0 27834.28 6447.25"
 xmlns:xlink="http://www.w3.org/1999/xlink"
 xmlns:xodm="http://www.corel.com/coreldraw/odm/2003">
 <defs>
  <style type="text/css">
   <![CDATA[
    .fil0 {fill:#000099}
    .fil1 {fill:#00ADEF}
   ]]>
  </style>
 </defs>
 <g id="Camada_x0020_1">
  <metadata id="CorelCorpID_0Corel-Layer"/>
  <g id="_2446143448864">
   <path class="fil0" d="M2639.97 4971.14c-85.11,-147.1 -422.45,-425.96 -576.93,-570.21 -195.99,-183.04 -362.41,-368 -569.22,-592.16 -1271.12,-1377.74 -1865.75,-3621.85 1521.35,-3526.38 -388.88,-464.43 -3722,-633.89 -2879.11,1756.74 211.96,601.2 710.8,1334.84 1042.53,1683.73 276.92,291.24 1120.36,1106.58 1461.37,1248.27z"/>
   <path class="fil1" d="M742.34 5894.77c576.74,189.03 3280.48,389.55 3738.64,106.86 -205.09,-198.5 -562.85,-289.9 -821.87,-428.2 -448.81,-239.64 -308.47,-350.27 -899.86,-183.3 -486.92,137.46 -1649.53,323.93 -2016.91,504.65z"/>
   <path class="fil0" d="M27570.94 5049l30.13 -688.59c-472.31,-72.73 -1428.1,-24.57 -1923.01,-18.57 -863.03,10.49 -1181.04,104.47 -1188.55,-799.67 168.93,-2.04 2908.17,67.03 3037.08,-67.14 9.56,-9.94 250.54,-534.13 -158.82,-590.56l-1689.69 -1.65c-655.34,-0.3 -1321.04,11.57 -1975.04,-3.55 -73.13,364.54 -42.81,1110.23 71.99,1450.02 134.73,398.79 380.77,595.17 823.62,689.95 367.26,78.59 2534.11,83.1 2972.3,29.75z"/>
   <path class="fil1" d="M23839.77 2111.61c740.59,3.62 3223.77,111.65 3767.81,-14.09 105.95,-904.4 197.59,-733.82 -1873.08,-726.61 -463.04,1.62 -1909.73,-46.02 -1894.73,740.7z"/>
   <path class="fil0" d="M17771.61 3595.07c-63.05,-104.08 -113.48,-182.81 -141.13,-220.11 -175.34,-395.73 -434.31,-815.61 -633.36,-1183.05 -258.37,-476.93 -319.04,-801.04 -921.77,-817.23l0 794.77c210.4,230.09 645.74,1119.85 769.97,1331.09l32.12 94.54 894.18 0z"/>
   <path class="fil0" d="M14267.28 3695.72c-239.04,328.42 -686.04,1183.08 -686.44,1349.79l796.12 10.48c109.95,-131.62 334.74,-540.65 394.79,-733.1l2499.98 -6.4 436.37 740.26 788.34 0.84c-3.73,-183.89 -402.38,-918.63 -664.61,-1361.87l-920.2 0 2.35 6.92c-331.69,-2.94 -664.47,-0.98 -996.31,-0.66 -520.16,0.51 -685.89,35.19 -728.91,-6.26l-921.47 0z"/>
   <path class="fil0" d="M9960.15 5785.25c-15.69,-22.66 -34.42,-40.23 -56.2,-52.72 -21.79,-12.49 -44.01,-20.19 -66.67,-23.09l0 -121.12c42.99,4.06 82.2,16.84 117.64,38.34 35.44,21.49 66.52,49.09 93.24,82.78l-88.01 75.81z"/>
   <path class="fil0" d="M10062.97 6094.58c-26.14,40.09 -58.52,72.91 -97.16,98.47 -38.63,25.56 -81.47,40.67 -128.53,45.31l0 -120.25c24.4,-4.65 47.64,-14.96 69.71,-30.93 22.08,-15.98 40.67,-37.33 55.77,-64.05l100.21 71.45z"/>
   <path class="fil0" d="M10667.69 5913.34c0,46.47 -6.39,88.73 -19.17,126.78 -12.78,38.05 -30.5,71.02 -53.16,98.91 -22.65,27.88 -49.08,50.25 -79.29,67.09 -30.21,16.85 -62.74,27.02 -97.6,30.5l0 -121.12c19.17,-4.65 35.58,-13.94 49.24,-27.89 13.65,-13.94 24.83,-30.35 33.54,-49.23 8.72,-18.88 15.11,-39.07 19.17,-60.56 4.07,-21.5 6.1,-42.41 6.1,-62.74 0,-21.5 -2.17,-43.43 -6.53,-65.79 -4.36,-22.37 -10.89,-42.99 -19.61,-61.87 -8.71,-18.88 -19.89,-35.15 -33.55,-48.8 -13.65,-13.65 -29.77,-22.8 -48.36,-27.45l0 -121.99c35.44,3.48 68.26,13.8 98.47,30.93 30.21,17.14 56.49,39.8 78.86,67.97 22.37,28.18 39.94,61.29 52.72,99.34 12.78,38.05 19.17,80.02 19.17,125.92z"/>
   <path class="fil0" d="M10116.12 5911.59c0,-45.89 5.95,-88.01 17.86,-126.35 11.91,-38.34 28.76,-71.6 50.54,-99.77 21.79,-28.18 48.08,-50.69 78.86,-67.54 30.79,-16.84 64.78,-26.72 101.96,-29.62l0 122.86c-19.17,4.65 -35.58,13.65 -49.24,27.02 -13.65,13.36 -24.83,29.33 -33.54,47.92 -8.72,18.59 -15.11,38.78 -19.18,60.56 -4.06,21.79 -6.09,43.14 -6.09,64.05 0,21.5 2.03,43.28 6.09,65.36 4.07,22.07 10.46,42.69 19.18,61.86 8.71,19.17 19.89,35.73 33.54,49.67 13.66,13.95 30.07,23.24 49.24,27.89l0 121.99c-37.76,-3.48 -71.89,-13.5 -102.39,-30.06 -30.5,-16.56 -56.64,-38.92 -78.43,-67.1 -21.78,-28.17 -38.63,-61.58 -50.54,-100.21 -11.91,-38.63 -17.86,-81.47 -17.86,-128.53z"/>
   <polygon class="fil0" points="11252.37,6133.8 11107.73,5875.88 11107.73,5602.27 11252.37,5602.27 "/>
   <polygon class="fil0" points="10760.06,6223.54 10760.06,5690.27 10904.7,5948.19 10904.7,6223.54 "/>
   <polygon class="fil0" points="11249.76,6223.54 11112.09,6223.54 10764.41,5602.27 10901.21,5602.27 "/>
   <path class="fil0" d="M11667.14 5783.51l0 -20.92c0,-9.87 -3.77,-19.89 -11.32,-30.06 -7.56,-10.16 -19.17,-17.28 -34.86,-21.35l0 -122.86c33.11,2.32 61.87,8.71 86.27,19.17 24.4,10.45 44.58,23.67 60.56,39.65 15.98,15.97 27.88,33.98 35.73,54.02 7.84,20.04 11.76,40.52 11.76,61.43l0 20.92 -148.13 0z"/>
   <path class="fil0" d="M11495.48 6018.77c0,23.24 6.25,43.72 18.74,61.44 12.49,17.71 30.64,29.48 54.46,35.29l0 121.12c-34.28,-2.9 -64.92,-10.46 -91.93,-22.66 -27.02,-12.19 -49.82,-28.03 -68.41,-47.49 -18.59,-19.46 -32.82,-41.82 -42.7,-67.09 -9.87,-25.27 -14.81,-52.14 -14.81,-80.61l144.64 0z"/>
   <path class="fil0" d="M11380.47 5762.59c0,-20.91 3.92,-41.24 11.76,-60.99 7.84,-19.75 19.46,-37.62 34.86,-53.59 15.39,-15.98 34.85,-29.19 58.38,-39.65 23.53,-10.46 50.98,-17.14 82.35,-20.04l0 122.86c-16.27,4.65 -27.6,12.06 -33.99,22.22 -6.39,10.17 -9.58,19.9 -9.58,29.19 0,9.3 2.9,17.14 8.71,23.53 5.81,6.39 13.65,12.2 23.53,17.43 9.87,5.23 21.2,10.02 33.98,14.38 12.78,4.35 26.43,8.57 40.96,12.63 23.82,6.97 48.36,14.96 73.63,23.97 25.27,9 48.22,20.76 68.84,35.29 20.62,14.52 37.47,32.82 50.54,54.9 13.07,22.07 19.61,49.95 19.61,83.65 0,27.3 -4.94,53.15 -14.82,77.55 -9.87,24.4 -24.25,45.9 -43.13,64.49 -18.88,18.58 -42.12,33.83 -69.71,45.74 -27.6,11.91 -59.11,19.03 -94.55,21.35l0 -120.25c24.98,-4.07 44.44,-13.94 58.39,-29.63 13.94,-15.68 20.91,-35.72 20.91,-60.12 0,-11.04 -3.05,-20.48 -9.15,-28.32 -6.1,-7.85 -14.38,-14.67 -24.84,-20.48 -10.45,-5.81 -22.65,-10.89 -36.59,-15.25 -13.95,-4.36 -28.76,-8.86 -44.44,-13.51 -23.82,-6.97 -47.93,-14.66 -72.33,-23.09 -24.4,-8.42 -46.47,-19.46 -66.23,-33.11 -19.75,-13.65 -35.87,-30.94 -48.36,-51.85 -12.49,-20.91 -18.73,-47.34 -18.73,-79.3z"/>
   <polygon class="fil0" points="12383.39,5602.27 12383.39,5722.51 11891.08,5722.51 11891.08,5602.27 "/>
   <polygon class="fil0" points="12065.35,6223.54 12065.35,5768.69 12210,5768.69 12210,6223.54 "/>
   <polygon class="fil0" points="12465.3,5602.27 12609.94,5602.27 12609.94,6223.54 12465.3,6223.54 "/>
   <path class="fil0" d="M12663.1 5722.51l0 -120.25 88.88 0c28.47,0 55.19,5.52 80.17,16.56 24.98,11.03 46.76,26.14 65.35,45.31 18.59,19.17 33.26,41.53 44.01,67.09 10.74,25.57 16.12,52.87 16.12,81.92 0,38.34 -9.15,73.34 -27.45,105 -18.3,31.66 -42.26,56.78 -71.89,75.37l117.64 230.04 -148.13 0 -101.95 -199.54 -62.74 0 0 -120.25 73.19 0c24.4,0 44.3,-8.71 59.7,-26.14 15.39,-17.43 23.09,-38.63 23.09,-63.61 0,-12.78 -2.18,-24.69 -6.54,-35.73 -4.36,-11.04 -10.31,-20.62 -17.86,-28.76 -7.55,-8.13 -16.41,-14.66 -26.58,-19.6 -10.17,-4.94 -20.77,-7.41 -31.81,-7.41l-73.19 0z"/>
   <path class="fil0" d="M13183.3 6008.32c0,26.14 6.97,49.08 20.92,68.84 13.94,19.75 31.95,32.82 54.02,39.21l0 120.25c-31.37,-2.9 -60.41,-10.6 -87.14,-23.09 -26.72,-12.49 -49.81,-29.34 -69.27,-50.54 -19.46,-21.21 -34.86,-46.77 -46.19,-76.68 -11.32,-29.92 -16.99,-63.76 -16.99,-101.52l0 -382.53 144.64 0 0 406.05z"/>
   <path class="fil0" d="M13386.33 5602.27l144.64 0 0 382.53c0,37.76 -5.67,71.6 -17,101.52 -11.32,29.91 -26.86,55.47 -46.61,76.68 -19.76,21.2 -42.99,38.05 -69.72,50.54 -26.72,12.49 -55.47,20.19 -86.26,23.09l0 -120.25c21.49,-6.39 39.35,-19.46 53.59,-39.21 14.23,-19.76 21.35,-42.7 21.35,-68.84l0 -406.05z"/>
   <path class="fil0" d="M14082.54 5785.25c-15.69,-22.66 -34.42,-40.23 -56.2,-52.72 -21.79,-12.49 -44.01,-20.19 -66.67,-23.09l0 -121.12c42.99,4.06 82.2,16.84 117.64,38.34 35.44,21.49 66.52,49.09 93.24,82.78l-88.01 75.81z"/>
   <path class="fil0" d="M14185.36 6094.58c-26.14,40.09 -58.52,72.91 -97.16,98.47 -38.63,25.56 -81.47,40.67 -128.53,45.31l0 -120.25c24.4,-4.65 47.64,-14.96 69.71,-30.93 22.08,-15.98 40.67,-37.33 55.77,-64.05l100.21 71.45z"/>
   <polygon class="fil0" points="14495.57,5991.76 14528.68,6112.01 14406.69,6112.01 14375.32,6223.54 14230.68,6223.54 14405.82,5664.13 14468.56,5892.43 14443.29,5991.76 "/>
   <polygon class="fil0" points="14612.33,6223.54 14441.54,5602.27 14563.54,5602.27 14756.98,6223.54 "/>
   <path class="fil0" d="M15335.56 5913.34c0,46.47 -6.39,88.73 -19.17,126.78 -12.78,38.05 -30.5,71.02 -53.16,98.91 -22.65,27.88 -49.08,50.25 -79.29,67.09 -30.21,16.85 -62.74,27.02 -97.6,30.5l0 -121.12c19.17,-4.65 35.58,-13.94 49.24,-27.89 13.65,-13.94 24.83,-30.35 33.54,-49.23 8.72,-18.88 15.11,-39.07 19.17,-60.56 4.07,-21.5 6.1,-42.41 6.1,-62.74 0,-21.5 -2.17,-43.43 -6.53,-65.79 -4.36,-22.37 -10.89,-42.99 -19.61,-61.87 -8.71,-18.88 -19.89,-35.15 -33.55,-48.8 -13.65,-13.65 -29.77,-22.8 -48.36,-27.45l0 -121.99c35.44,3.48 68.26,13.8 98.47,30.93 30.21,17.14 56.49,39.8 78.86,67.97 22.37,28.18 39.94,61.29 52.72,99.34 12.78,38.05 19.17,80.02 19.17,125.92z"/>
   <path class="fil0" d="M14783.99 5911.59c0,-45.89 5.95,-88.01 17.86,-126.35 11.91,-38.34 28.76,-71.6 50.54,-99.77 21.79,-28.18 48.08,-50.69 78.86,-67.54 30.79,-16.84 64.78,-26.72 101.96,-29.62l0 122.86c-19.17,4.65 -35.58,13.65 -49.24,27.02 -13.65,13.36 -24.83,29.33 -33.54,47.92 -8.72,18.59 -15.11,38.78 -19.18,60.56 -4.06,21.79 -6.09,43.14 -6.09,64.05 0,21.5 2.03,43.28 6.09,65.36 4.07,22.07 10.46,42.69 19.18,61.86 8.71,19.17 19.89,35.73 33.54,49.67 13.66,13.95 30.07,23.24 49.24,27.89l0 121.99c-37.76,-3.48 -71.89,-13.5 -102.39,-30.06 -30.5,-16.56 -56.64,-38.92 -78.43,-67.1 -21.78,-28.17 -38.63,-61.58 -50.54,-100.21 -11.91,-38.63 -17.86,-81.47 -17.86,-128.53z"/>
   <polygon class="fil0" points="15887.13,5963 15887.13,5842.76 16064.88,5842.76 16064.88,5963 "/>
   <polygon class="fil0" points="15887.13,5722.51 15887.13,5602.27 16122.39,5602.27 16122.39,5722.51 "/>
   <polygon class="fil0" points="15887.13,6223.54 15887.13,6103.3 16122.39,6103.3 16122.39,6223.54 "/>
   <polygon class="fil0" points="15833.97,6223.54 15688.45,6223.54 15688.45,5602.27 15833.97,5602.27 "/>
   <polygon class="fil0" points="16483.12,6223.54 16483.12,5730.35 16627.77,6076.29 16627.77,6223.54 "/>
   <polygon class="fil0" points="16617.32,5602.27 16850.84,6182.58 16833.41,6223.54 16742.79,6223.54 16483.12,5602.27 "/>
   <polygon class="fil0" points="16877.85,6118.11 16815.11,5961.26 16958.88,5602.27 17090.46,5602.27 17090.46,6223.54 16945.81,6223.54 16945.81,5955.16 "/>
   <polygon class="fil0" points="17437.27,5991.76 17470.37,6112.01 17348.39,6112.01 17317.02,6223.54 17172.38,6223.54 17347.52,5664.13 17410.26,5892.43 17384.99,5991.76 "/>
   <polygon class="fil0" points="17554.03,6223.54 17383.24,5602.27 17505.23,5602.27 17698.68,6223.54 "/>
   <polygon class="fil0" points="18273.76,6133.8 18129.12,5875.88 18129.12,5602.27 18273.76,5602.27 "/>
   <polygon class="fil0" points="17781.45,6223.54 17781.45,5690.27 17926.1,5948.19 17926.1,6223.54 "/>
   <polygon class="fil0" points="18271.15,6223.54 18133.48,6223.54 17785.8,5602.27 17922.61,5602.27 "/>
   <path class="fil0" d="M18543.01 6008.32c0,26.14 6.97,49.08 20.92,68.84 13.94,19.75 31.95,32.82 54.02,39.21l0 120.25c-31.37,-2.9 -60.41,-10.6 -87.14,-23.09 -26.72,-12.49 -49.81,-29.34 -69.27,-50.54 -19.46,-21.21 -34.86,-46.77 -46.19,-76.68 -11.32,-29.92 -16.99,-63.76 -16.99,-101.52l0 -382.53 144.64 0 0 406.05z"/>
   <path class="fil0" d="M18746.05 5602.27l144.64 0 0 382.53c0,37.76 -5.67,71.6 -17,101.52 -11.32,29.91 -26.86,55.47 -46.61,76.68 -19.76,21.2 -42.99,38.05 -69.72,50.54 -26.72,12.49 -55.47,20.19 -86.26,23.09l0 -120.25c21.49,-6.39 39.35,-19.46 53.59,-39.21 14.23,-19.76 21.35,-42.7 21.35,-68.84l0 -406.05z"/>
   <polygon class="fil0" points="19457.07,5602.27 19457.07,5722.51 18964.76,5722.51 18964.76,5602.27 "/>
   <polygon class="fil0" points="19139.03,6223.54 19139.03,5768.69 19283.68,5768.69 19283.68,6223.54 "/>
   <polygon class="fil0" points="19735.91,5963 19735.91,5842.76 19913.66,5842.76 19913.66,5963 "/>
   <polygon class="fil0" points="19735.91,5722.51 19735.91,5602.27 19971.17,5602.27 19971.17,5722.51 "/>
   <polygon class="fil0" points="19735.91,6223.54 19735.91,6103.3 19971.17,6103.3 19971.17,6223.54 "/>
   <polygon class="fil0" points="19682.75,6223.54 19537.24,6223.54 19537.24,5602.27 19682.75,5602.27 "/>
   <polygon class="fil0" points="20574.15,6133.8 20429.5,5875.88 20429.5,5602.27 20574.15,5602.27 "/>
   <polygon class="fil0" points="20081.84,6223.54 20081.84,5690.27 20226.48,5948.19 20226.48,6223.54 "/>
   <polygon class="fil0" points="20571.54,6223.54 20433.86,6223.54 20086.19,5602.27 20222.99,5602.27 "/>
   <path class="fil0" d="M21123.98 5785.25c-15.69,-22.66 -34.42,-40.23 -56.2,-52.72 -21.79,-12.49 -44.01,-20.19 -66.67,-23.09l0 -121.12c42.99,4.06 82.2,16.84 117.64,38.34 35.44,21.49 66.52,49.09 93.24,82.78l-88.01 75.81z"/>
   <path class="fil0" d="M21226.79 6094.58c-26.14,40.09 -58.52,72.91 -97.16,98.47 -38.63,25.56 -81.47,40.67 -128.53,45.31l0 -120.25c24.4,-4.65 47.64,-14.96 69.71,-30.93 22.08,-15.98 40.67,-37.33 55.77,-64.05l100.21 71.45z"/>
   <polygon class="fil0" points="21537,5991.76 21570.11,6112.01 21448.12,6112.01 21416.75,6223.54 21272.11,6223.54 21447.25,5664.13 21509.99,5892.43 21484.72,5991.76 "/>
   <polygon class="fil0" points="21653.77,6223.54 21482.97,5602.27 21604.97,5602.27 21798.41,6223.54 "/>
   <path class="fil0" d="M22376.99 5913.34c0,46.47 -6.39,88.73 -19.17,126.78 -12.78,38.05 -30.5,71.02 -53.16,98.91 -22.65,27.88 -49.08,50.25 -79.29,67.09 -30.21,16.85 -62.74,27.02 -97.6,30.5l0 -121.12c19.17,-4.65 35.58,-13.94 49.24,-27.89 13.65,-13.94 24.83,-30.35 33.54,-49.23 8.72,-18.88 15.11,-39.07 19.17,-60.56 4.07,-21.5 6.1,-42.41 6.1,-62.74 0,-21.5 -2.17,-43.43 -6.53,-65.79 -4.36,-22.37 -10.89,-42.99 -19.61,-61.87 -8.71,-18.88 -19.89,-35.15 -33.55,-48.8 -13.65,-13.65 -29.77,-22.8 -48.36,-27.45l0 -121.99c35.44,3.48 68.26,13.8 98.47,30.93 30.21,17.14 56.49,39.8 78.86,67.97 22.37,28.18 39.94,61.29 52.72,99.34 12.78,38.05 19.17,80.02 19.17,125.92z"/>
   <path class="fil0" d="M21825.42 5911.59c0,-45.89 5.95,-88.01 17.86,-126.35 11.91,-38.34 28.76,-71.6 50.54,-99.77 21.79,-28.18 48.08,-50.69 78.86,-67.54 30.79,-16.84 64.78,-26.72 101.96,-29.62l0 122.86c-19.17,4.65 -35.58,13.65 -49.24,27.02 -13.65,13.36 -24.83,29.33 -33.54,47.92 -8.72,18.59 -15.11,38.78 -19.18,60.56 -4.06,21.79 -6.09,43.14 -6.09,64.05 0,21.5 2.03,43.28 6.09,65.36 4.07,22.07 10.46,42.69 19.18,61.86 8.71,19.17 19.89,35.73 33.54,49.67 13.66,13.95 30.07,23.24 49.24,27.89l0 121.99c-37.76,-3.48 -71.89,-13.5 -102.39,-30.06 -30.5,-16.56 -56.64,-38.92 -78.43,-67.1 -21.78,-28.17 -38.63,-61.58 -50.54,-100.21 -11.91,-38.63 -17.86,-81.47 -17.86,-128.53z"/>
   <polygon class="fil0" points="22734.24,5602.27 22878.89,5602.27 22878.89,6223.54 22734.24,6223.54 "/>
   <polygon class="fil0" points="23504.51,6133.8 23359.87,5875.88 23359.87,5602.27 23504.51,5602.27 "/>
   <polygon class="fil0" points="23012.2,6223.54 23012.2,5690.27 23156.85,5948.19 23156.85,6223.54 "/>
   <polygon class="fil0" points="23501.91,6223.54 23364.23,6223.54 23016.55,5602.27 23153.36,5602.27 "/>
   <polygon class="fil0" points="23775.5,5602.27 23775.5,6223.54 23630.86,6223.54 23630.86,5602.27 "/>
   <path class="fil0" d="M23828.66 5722.51l0 -120.25 51.41 0c41.83,0 81.04,8.13 117.64,24.4 36.6,16.26 68.55,38.48 95.85,66.66 27.31,28.17 48.8,61.14 64.49,98.9 15.68,37.76 23.52,78.14 23.52,121.13 0,42.98 -7.84,83.21 -23.52,120.68 -15.69,37.47 -37.18,70.29 -64.49,98.47 -27.3,28.17 -59.25,50.4 -95.85,66.66 -36.6,16.27 -75.81,24.4 -117.64,24.4l-51.41 0 0 -119.38 34.86 0c24.39,0 47.34,-4.94 68.84,-14.81 21.49,-9.88 40.37,-23.53 56.64,-40.96 16.26,-17.43 29.04,-37.76 38.34,-61 9.29,-23.23 13.94,-47.92 13.94,-74.06 0,-26.15 -4.65,-50.84 -13.94,-74.07 -9.3,-23.24 -22.08,-43.43 -38.34,-60.56 -16.27,-17.14 -35.15,-30.79 -56.64,-40.96 -21.5,-10.17 -44.45,-15.25 -68.84,-15.25l-34.86 0z"/>
   <path class="fil0" d="M24428.15 6008.32c0,26.14 6.97,49.08 20.92,68.84 13.94,19.75 31.95,32.82 54.02,39.21l0 120.25c-31.37,-2.9 -60.41,-10.6 -87.14,-23.09 -26.72,-12.49 -49.81,-29.34 -69.27,-50.54 -19.46,-21.21 -34.86,-46.77 -46.19,-76.68 -11.32,-29.92 -16.99,-63.76 -16.99,-101.52l0 -382.53 144.64 0 0 406.05z"/>
   <path class="fil0" d="M24631.18 5602.27l144.64 0 0 382.53c0,37.76 -5.67,71.6 -17,101.52 -11.32,29.91 -26.86,55.47 -46.61,76.68 -19.76,21.2 -42.99,38.05 -69.72,50.54 -26.72,12.49 -55.47,20.19 -86.26,23.09l0 -120.25c21.49,-6.39 39.35,-19.46 53.59,-39.21 14.23,-19.76 21.35,-42.7 21.35,-68.84l0 -406.05z"/>
   <path class="fil0" d="M25192.33 5783.51l0 -20.92c0,-9.87 -3.77,-19.89 -11.32,-30.06 -7.56,-10.16 -19.17,-17.28 -34.86,-21.35l0 -122.86c33.11,2.32 61.87,8.71 86.27,19.17 24.4,10.45 44.58,23.67 60.56,39.65 15.98,15.97 27.88,33.98 35.73,54.02 7.84,20.04 11.76,40.52 11.76,61.43l0 20.92 -148.13 0z"/>
   <path class="fil0" d="M25020.68 6018.77c0,23.24 6.25,43.72 18.74,61.44 12.49,17.71 30.64,29.48 54.46,35.29l0 121.12c-34.28,-2.9 -64.92,-10.46 -91.93,-22.66 -27.02,-12.19 -49.82,-28.03 -68.41,-47.49 -18.59,-19.46 -32.82,-41.82 -42.7,-67.09 -9.87,-25.27 -14.81,-52.14 -14.81,-80.61l144.64 0z"/>
   <path class="fil0" d="M24905.66 5762.59c0,-20.91 3.92,-41.24 11.76,-60.99 7.84,-19.75 19.46,-37.62 34.86,-53.59 15.39,-15.98 34.85,-29.19 58.38,-39.65 23.53,-10.46 50.98,-17.14 82.35,-20.04l0 122.86c-16.27,4.65 -27.6,12.06 -33.99,22.22 -6.39,10.17 -9.58,19.9 -9.58,29.19 0,9.3 2.9,17.14 8.71,23.53 5.81,6.39 13.65,12.2 23.53,17.43 9.87,5.23 21.2,10.02 33.98,14.38 12.78,4.35 26.43,8.57 40.96,12.63 23.82,6.97 48.36,14.96 73.63,23.97 25.27,9 48.22,20.76 68.84,35.29 20.62,14.52 37.47,32.82 50.54,54.9 13.07,22.07 19.61,49.95 19.61,83.65 0,27.3 -4.94,53.15 -14.82,77.55 -9.87,24.4 -24.25,45.9 -43.13,64.49 -18.88,18.58 -42.12,33.83 -69.71,45.74 -27.6,11.91 -59.11,19.03 -94.55,21.35l0 -120.25c24.98,-4.07 44.44,-13.94 58.39,-29.63 13.94,-15.68 20.91,-35.72 20.91,-60.12 0,-11.04 -3.05,-20.48 -9.15,-28.32 -6.1,-7.85 -14.38,-14.67 -24.84,-20.48 -10.45,-5.81 -22.65,-10.89 -36.59,-15.25 -13.95,-4.36 -28.76,-8.86 -44.44,-13.51 -23.82,-6.97 -47.93,-14.66 -72.33,-23.09 -24.4,-8.42 -46.47,-19.46 -66.23,-33.11 -19.75,-13.65 -35.87,-30.94 -48.36,-51.85 -12.49,-20.91 -18.73,-47.34 -18.73,-79.3z"/>
   <polygon class="fil0" points="25908.58,5602.27 25908.58,5722.51 25416.27,5722.51 25416.27,5602.27 "/>
   <polygon class="fil0" points="25590.55,6223.54 25590.55,5768.69 25735.19,5768.69 25735.19,6223.54 "/>
   <polygon class="fil0" points="25990.49,5602.27 26135.13,5602.27 26135.13,6223.54 25990.49,6223.54 "/>
   <path class="fil0" d="M26188.29 5722.51l0 -120.25 88.88 0c28.47,0 55.19,5.52 80.17,16.56 24.98,11.03 46.76,26.14 65.35,45.31 18.59,19.17 33.26,41.53 44.01,67.09 10.74,25.57 16.12,52.87 16.12,81.92 0,38.34 -9.15,73.34 -27.45,105 -18.3,31.66 -42.26,56.78 -71.89,75.37l117.64 230.04 -148.13 0 -101.95 -199.54 -62.74 0 0 -120.25 73.19 0c24.4,0 44.3,-8.71 59.7,-26.14 15.39,-17.43 23.09,-38.63 23.09,-63.61 0,-12.78 -2.18,-24.69 -6.54,-35.73 -4.36,-11.04 -10.31,-20.62 -17.86,-28.76 -7.55,-8.13 -16.41,-14.66 -26.58,-19.6 -10.17,-4.94 -20.77,-7.41 -31.81,-7.41l-73.19 0z"/>
   <polygon class="fil0" points="26608.29,5602.27 26752.93,5602.27 26752.93,6223.54 26608.29,6223.54 "/>
   <polygon class="fil0" points="27113.67,5991.76 27146.78,6112.01 27024.79,6112.01 26993.42,6223.54 26848.78,6223.54 27023.92,5664.13 27086.66,5892.43 27061.39,5991.76 "/>
   <polygon class="fil0" points="27230.43,6223.54 27059.64,5602.27 27181.63,5602.27 27375.08,6223.54 "/>
   <polygon class="fil0" points="27655.65,6223.54 27655.65,6104.17 27834.28,6104.17 27834.28,6223.54 "/>
   <polygon class="fil0" points="27457.85,5602.27 27602.5,5602.27 27602.5,6223.54 27457.85,6223.54 "/>
   <path class="fil0" d="M13799.24 6401.28l0 -46.52c13.98,-1.77 26.09,-6.61 35.47,-13.68 11.27,-8.53 16.68,-18.71 16.68,-29.67 0,-10.5 -6.28,-21.12 -13.62,-30.47l-8.98 -11.43c-12.61,-16.05 -21.25,-33.41 -21.25,-51.34 0,-2.34 0.11,-4.65 0.33,-6.94 -3.75,-1.77 -7.46,-3.62 -11.14,-5.55 -33.69,-17.72 -63.03,-40.96 -88.01,-69.71 -24.98,-28.76 -44.58,-62.45 -58.82,-101.09 -14.23,-38.63 -21.34,-80.6 -21.34,-125.91 0,-42.99 7.11,-83.07 21.34,-120.25 14.24,-37.18 33.7,-70.01 58.39,-98.47 24.69,-28.47 54.02,-51.56 88.01,-69.28 33.98,-17.71 70.73,-28.32 110.23,-31.8l0 121.99c-19.75,4.07 -38.2,11.77 -55.33,23.09 -17.14,11.33 -31.96,25.71 -44.45,43.14 -12.49,17.43 -22.36,37.32 -29.62,59.69 -7.26,22.36 -10.89,46.33 -10.89,71.89 0,25.56 3.63,49.96 10.89,73.19 7.26,23.24 17.13,44.16 29.62,62.75 12.49,18.58 27.31,34.27 44.45,47.05 17.13,12.78 35.58,21.2 55.33,25.27 0,29.04 0,67.95 0,120.25 -9.98,-0.88 -19.78,-2.22 -29.39,-4.01 3.48,9.68 12.1,20.88 17.91,28.42 14.48,18.81 23.23,38.69 23.23,59.58 0,21.83 -9.86,41.24 -32.55,58.11 -18.59,13.83 -40.88,22.52 -70.54,22.52 -5.41,0 -10.72,-0.28 -15.95,-0.82z"/>
   <path class="fil0" d="M9643.85 5908.98c0,25.56 3.63,49.96 10.89,73.19 7.26,23.24 17.13,44.16 29.62,62.75 12.49,18.58 27.31,34.27 44.45,47.05 17.13,12.78 35.58,21.2 55.33,25.27l0 120.25c-39.5,-3.48 -76.1,-14.09 -109.8,-31.8 -33.69,-17.72 -63.03,-40.96 -88.01,-69.71 -24.98,-28.76 -44.58,-62.45 -58.82,-101.09 -14.23,-38.63 -21.34,-80.6 -21.34,-125.91 0,-42.99 7.11,-83.07 21.34,-120.25 14.24,-37.18 33.7,-70.01 58.39,-98.47 24.69,-28.47 54.02,-51.56 88.01,-69.28 33.98,-17.71 70.73,-28.32 110.23,-31.8l0 121.99c-19.75,4.07 -38.2,11.77 -55.33,23.09 -17.14,11.33 -31.96,25.71 -44.45,43.14 -12.49,17.43 -22.36,37.32 -29.62,59.69 -7.26,22.36 -10.89,46.33 -10.89,71.89z"/>
   <path class="fil0" d="M15188.7 3553.13c119.76,-88.61 564.05,-1033.39 682.07,-1230.4l103.93 -126.54 0 -821.46c-19.53,0.5 -39.49,1.23 -60.06,2.28 -560.13,28.7 -694.43,509.75 -928.72,962.1 -156.26,301.75 -578.44,944.41 -614.83,1238.26 -6.26,4.49 -13.18,10.53 -20.6,17.69l831.83 0c1.95,-12.69 4.15,-26.6 6.38,-41.94z"/>
   <path class="fil0" d="M9940.22 2675.19c80.71,-705.96 640.39,-545.54 1294.74,-545.44 1910.7,0.29 1931.93,198.29 1833.26,-698.04 -334.97,-133.2 -2926.07,-69.3 -3271.81,56.15 -424.61,154.08 -627.71,507.68 -669.57,1046.81 -28.45,366.48 -36.21,1366.37 56.25,1665 122.6,745.35 753.7,855.06 1542.84,860.07 2360.64,14.97 2442.47,238.4 2342.05,-694.64 -333.45,-130.55 -1923,-45.4 -2399.13,-50.33 -869.45,-8.99 -768.34,-439.46 -728.63,-1639.57z"/>
   <path class="fil0" d="M23040.77 4093.7c-47.22,-795.57 -73.65,-1180.79 -914.02,-1215.03 -1274.02,-51.92 -2222.45,259.24 -2254.7,-339.48 -6.64,-123.1 23.56,-259.82 40.78,-363.62 597.67,-221.44 2315.59,87.62 2977.4,-106.7l16.91 -649.76c-368.99,-97.28 -1781.04,-40.04 -2250.29,-40.22 -775.72,-0.3 -1508.41,-57.96 -1582.22,761.97 -202.27,2247.36 1935,1018.89 3125.33,1442.92l64.25 592.79c-512.15,352.74 -2492.01,27.92 -3165.2,181.86l-11.5 538.61c3.32,15.68 9.27,31.87 12.87,45.42l32.82 83.45c283.66,109.94 1913.86,34.32 2369.92,34.34 898.56,0.04 1557.92,47.64 1537.66,-966.55z"/>
   <path class="fil0" d="M20837.55 6401.28l0 -46.52c13.98,-1.77 26.09,-6.61 35.47,-13.68 11.27,-8.53 16.68,-18.71 16.68,-29.67 0,-10.5 -6.28,-21.12 -13.62,-30.47l-8.98 -11.43c-12.61,-16.05 -21.25,-33.41 -21.25,-51.34 0,-2.83 0.16,-5.62 0.49,-8.37 -2.74,-1.33 -5.47,-2.7 -8.17,-4.12 -33.69,-17.72 -63.03,-40.96 -88.01,-69.71 -24.98,-28.76 -44.58,-62.45 -58.82,-101.09 -14.23,-38.63 -21.34,-80.6 -21.34,-125.91 0,-42.99 7.11,-83.07 21.34,-120.25 14.24,-37.18 33.7,-70.01 58.39,-98.47 24.69,-28.47 54.02,-51.56 88.01,-69.28 33.98,-17.71 70.73,-28.32 110.23,-31.8l0 121.99c-19.75,4.07 -38.2,11.77 -55.33,23.09 -17.14,11.33 -31.96,25.71 -44.45,43.14 -12.49,17.43 -22.36,37.32 -29.62,59.69 -7.26,22.36 -10.89,46.33 -10.89,71.89 0,25.56 3.63,49.96 10.89,73.19 7.26,23.24 17.13,44.16 29.62,62.75 12.49,18.58 27.31,34.27 44.45,47.05 17.13,12.78 35.58,21.2 55.33,25.27 0,33.44 0,68.26 0,120.25 -11.14,-0.98 -22.06,-2.53 -32.74,-4.65 3.33,9.82 12.19,21.36 18.13,29.06 14.48,18.81 23.23,38.69 23.23,59.58 0,21.83 -9.86,41.24 -32.55,58.11 -18.59,13.83 -40.88,22.52 -70.54,22.52 -5.41,0 -10.72,-0.28 -15.95,-0.82z"/>
   <path class="fil1" d="M4234.11 3870.87c123.15,262.67 208.22,433.18 -37.67,681.95 -144.1,145.79 -330.01,331.62 -620.74,168.83 -363.46,-203.51 -801.43,-555.27 -1110.68,-811.93 -1306.26,-1084.14 -1249.75,-1996.29 -1511.29,-2315.99 -375.38,708.7 725.16,2119.03 1259.25,2612.5 590.4,545.5 1467.57,1245.04 2382.98,1639.31 836.83,360.43 2199.57,903.65 3158.87,393.45 939.85,-499.86 719.74,-1689.98 265.52,-2436.24 -69.22,-113.75 -170.53,-206.35 -204.8,-275.01 28.19,223.94 992.77,2283.85 -1324.5,2135.14l-239.59 -63.35c193.98,-234.23 678.22,-263.33 1051.45,-845.47 361.95,-564.53 89.36,-941.35 -223,-1349.53 -202.27,-264.32 -710.14,-586.81 -1081.91,-800.2 -225.72,-129.54 -1063.5,-579.14 -1316.38,-563.62 459.73,526.07 1192.41,803.56 1546.33,1726.83 327.01,853.04 -1176.82,1671.7 -1725.98,1411.48 333.05,-231.29 1245.38,-417.22 1067.38,-1156.69l-124.66 -243.72c-14.51,-132.2 21.46,-41.3 -70.5,-185.54 -43.57,-68.35 -67.95,-87.46 -122.56,-145.52 -795.54,-845.96 -2755.15,-1682.11 837.71,-2547.44 342.18,-82.41 1619.14,-290.38 1790.09,-391.98 -1419.93,6.89 -3320.96,302.25 -4422.61,760.67 -610.91,254.21 -1263.12,700.31 -642.66,1442.84 190.19,227.62 464.73,419.39 696.28,600.06l723.65 559.17z"/>
   <path class="fil0" d="M14300.17 5547.5l64.26 0c2.45,-11.86 9.13,-22.13 18.9,-30.07 11.78,-9.57 25.85,-14.15 41,-14.15 14.51,0 29.18,5.32 42.09,11.55l15.8 7.61c22.17,10.69 46.16,18.02 70.93,18.02 30.48,0 57.83,-8.19 81.04,-28.21 20.07,-17.31 31.06,-37.9 31.06,-64.55 0,-7.22 -1.33,-14.12 -3.64,-20.74l-60.76 0c-0.38,15.1 -6.08,28.76 -16.98,39.4 -11.24,10.99 -25.65,16.39 -41.32,16.39 -14.86,0 -36.49,-10.19 -49.81,-16.5 -25.98,-12.28 -53.45,-19.7 -82.31,-19.7 -30.16,0 -56.98,8.37 -80.29,27.61 -19.1,15.76 -31.12,34.66 -31.12,59.82 0,4.58 0.4,9.08 1.15,13.52z"/>
   <path class="fil0" d="M21364.8 5547.5l64.26 0c2.45,-11.86 9.13,-22.13 18.9,-30.07 11.78,-9.57 25.85,-14.15 41,-14.15 14.51,0 29.18,5.32 42.09,11.55l15.8 7.61c22.17,10.69 46.16,18.02 70.93,18.02 30.48,0 57.83,-8.19 81.04,-28.21 20.07,-17.31 31.06,-37.9 31.06,-64.55 0,-7.22 -1.33,-14.12 -3.64,-20.74l-60.76 0c-0.38,15.1 -6.08,28.76 -16.98,39.4 -11.24,10.99 -25.65,16.39 -41.32,16.39 -14.86,0 -36.49,-10.19 -49.81,-16.5 -25.98,-12.28 -53.45,-19.7 -82.31,-19.7 -30.16,0 -56.98,8.37 -80.29,27.61 -19.1,15.76 -31.12,34.66 -31.12,59.82 0,4.58 0.4,9.08 1.15,13.52z"/>
  </g>
 </g>
</svg>
