<?xml version="1.0" encoding="UTF-8"?>
<!DOCTYPE svg PUBLIC "-//W3C//DTD SVG 1.1//EN" "http://www.w3.org/Graphics/SVG/1.1/DTD/svg11.dtd">
<!-- Creator: CorelDRAW -->
<svg xmlns="http://www.w3.org/2000/svg" xml:space="preserve" width="266mm" height="95.033mm" version="1.1" style="shape-rendering:geometricPrecision; text-rendering:geometricPrecision; image-rendering:optimizeQuality; fill-rule:evenodd; clip-rule:evenodd"
viewBox="0 0 40456.89 14453.93"
 xmlns:xlink="http://www.w3.org/1999/xlink"
 xmlns:xodm="http://www.corel.com/coreldraw/odm/2003">
 <defs>
  <style type="text/css">
   <![CDATA[
    .fil0 {fill:#272E64}
    .fil2 {fill:#FEFEFE;fill-rule:nonzero}
    .fil3 {fill:#272E64;fill-rule:nonzero}
    .fil1 {fill:url(#id8)}
   ]]>
  </style>
     <mask id="id0">
  <linearGradient id="id1" gradientUnits="userSpaceOnUse" x1="4895.41" y1="105.08" x2="4911.08" y2="1623.43">
   <stop offset="0" style="stop-opacity:1; stop-color:white"/>
   <stop offset="1" style="stop-opacity:0; stop-color:white"/>
  </linearGradient>
      <rect style="fill:url(#id1)" x="725.34" y="414.97" width="8423.03" height="3786.3"/>
     </mask>
     <mask id="id2">
  <linearGradient id="id3" gradientUnits="userSpaceOnUse" x1="15094.08" y1="105.08" x2="15109.74" y2="1623.43">
   <stop offset="0" style="stop-opacity:1; stop-color:white"/>
   <stop offset="1" style="stop-opacity:0; stop-color:white"/>
  </linearGradient>
      <rect style="fill:url(#id3)" x="10924" y="414.97" width="8423.03" height="3786.3"/>
     </mask>
     <mask id="id4">
  <linearGradient id="id5" gradientUnits="userSpaceOnUse" x1="25292.74" y1="105.08" x2="25308.41" y2="1623.43">
   <stop offset="0" style="stop-opacity:1; stop-color:white"/>
   <stop offset="1" style="stop-opacity:0; stop-color:white"/>
  </linearGradient>
      <rect style="fill:url(#id5)" x="21122.67" y="414.97" width="8423.03" height="3786.3"/>
     </mask>
     <mask id="id6">
  <linearGradient id="id7" gradientUnits="userSpaceOnUse" x1="35491.44" y1="105.08" x2="35507.11" y2="1623.43">
   <stop offset="0" style="stop-opacity:1; stop-color:white"/>
   <stop offset="1" style="stop-opacity:0; stop-color:white"/>
  </linearGradient>
      <rect style="fill:url(#id7)" x="31321.36" y="414.97" width="8423.03" height="3786.3"/>
     </mask>
  <linearGradient id="id8" gradientUnits="objectBoundingBox" x1="49.9516%" y1="100%" x2="50.0484%" y2="0%">
   <stop offset="0" style="stop-opacity:1; stop-color:#272E64"/>
   <stop offset="1" style="stop-opacity:1; stop-color:#FEFEFE"/>
  </linearGradient>
 </defs>
 <g id="Camada_x0020_1">
  <metadata id="CorelCorpID_0Corel-Layer"/>
  <g id="_2446140994704">
   <g>
    <path class="fil0" d="M1228.14 0l7404.6 0c591.96,0 1076.28,484.31 1076.28,1076.28l0 8275.91c0,591.96 -484.31,1076.28 -1076.28,1076.28l-7404.6 0c-591.96,0 -1076.28,-484.31 -1076.28,-1076.28l0 -8275.91c0,-591.96 484.31,-1076.28 1076.28,-1076.28z"/>
    <path class="fil1" style="mask:url(#id0)" d="M1172.49 430.18l7528.72 0c237.57,0 431.95,194.38 431.95,431.95l0 2891.99c0,237.57 -194.38,431.95 -431.95,431.95l-7528.72 0c-237.57,0 -431.95,-194.38 -431.95,-431.95l0 -2891.99c0,-237.57 194.38,-431.95 431.95,-431.95z"/>
    <path class="fil0" d="M11426.81 0l7404.6 0c591.96,0 1076.28,484.31 1076.28,1076.28l0 8275.91c0,591.96 -484.31,1076.28 -1076.28,1076.28l-7404.6 0c-591.96,0 -1076.28,-484.31 -1076.28,-1076.28l0 -8275.91c0,-591.96 484.31,-1076.28 1076.28,-1076.28z"/>
    <path class="fil1" style="mask:url(#id2)" d="M11371.16 430.18l7528.72 0c237.57,0 431.95,194.38 431.95,431.95l0 2891.99c0,237.57 -194.38,431.95 -431.95,431.95l-7528.72 0c-237.57,0 -431.95,-194.38 -431.95,-431.95l0 -2891.99c0,-237.57 194.38,-431.95 431.95,-431.95z"/>
    <path class="fil0" d="M21625.47 0l7404.6 0c591.96,0 1076.28,484.31 1076.28,1076.28l0 8275.91c0,591.96 -484.31,1076.28 -1076.28,1076.28l-7404.6 0c-591.96,0 -1076.28,-484.31 -1076.28,-1076.28l0 -8275.91c0,-591.96 484.31,-1076.28 1076.28,-1076.28z"/>
    <path class="fil1" style="mask:url(#id4)" d="M21569.82 430.18l7528.72 0c237.57,0 431.95,194.38 431.95,431.95l0 2891.99c0,237.57 -194.38,431.95 -431.95,431.95l-7528.72 0c-237.57,0 -431.95,-194.38 -431.95,-431.95l0 -2891.99c0,-237.57 194.38,-431.95 431.95,-431.95z"/>
    <path class="fil0" d="M31824.17 0l7404.6 0c591.96,0 1076.28,484.31 1076.28,1076.28l0 8275.91c0,591.96 -484.31,1076.28 -1076.28,1076.28l-7404.6 0c-591.96,0 -1076.28,-484.31 -1076.28,-1076.28l0 -8275.91c0,-591.96 484.31,-1076.28 1076.28,-1076.28z"/>
    <path class="fil1" style="mask:url(#id6)" d="M31768.52 430.18l7528.72 0c237.57,0 431.95,194.38 431.95,431.95l0 2891.99c0,237.57 -194.38,431.95 -431.95,431.95l-7528.72 0c-237.57,0 -431.95,-194.38 -431.95,-431.95l0 -2891.99c0,-237.57 194.38,-431.95 431.95,-431.95z"/>
    <path class="fil2" d="M1315.12 9291.59l0 -837.22 451.9 0c343.76,0 558.14,-38.56 641.18,-115.67 83.04,-77.11 123.61,-268.05 123.61,-570.99l0 -4351.31c0,-299.27 -40.56,-488.39 -123.61,-563.66 -83.04,-77.11 -297.42,-115.67 -641.18,-115.67l-451.9 0 0 -837.22 7230.63 0 0 3062.44 -892.24 0c0,-383.72 -27.04,-710.52 -79.2,-980.41 -52.14,-271.73 -133.25,-501.23 -243.33,-692.18 -113.93,-196.44 -299.34,-337.82 -556.21,-424.11 -256.86,-86.3 -643.1,-128.52 -1160.67,-128.52l-1448.45 0 0 2269.3 198.92 0c486.68,0 805.32,-80.79 955.97,-240.52 150.63,-159.73 245.27,-526.93 281.97,-1103.44l880.67 -5.51 0 3706.88 -880.67 -5.51c-34.75,-633.41 -127.47,-1042.85 -280.04,-1226.44 -152.58,-185.43 -467.37,-277.24 -946.31,-277.24l-210.51 0 0 1913.11c0,299.26 42.48,488.37 127.47,567.33 84.96,78.94 301.27,119.33 648.89,119.33l544.63 0 0 837.22 -4171.52 0z"/>
    <path class="fil2" d="M13802.33 4741.98l1371.19 0c550.43,0 954.05,-88.12 1210.91,-266.21 256.87,-176.26 384.33,-459 384.33,-846.4 0,-398.41 -121.68,-682.99 -366.94,-853.73 -245.27,-172.58 -668.21,-258.88 -1266.91,-258.88l-1332.57 0 0 2225.22zm0 2807.24c0,299.27 42.48,486.55 127.47,565.5 84.96,78.94 301.27,119.33 648.89,119.33l544.63 0 0 837.22 -4171.52 0 0 -837.22 451.9 0c343.76,0 558.14,-38.56 641.18,-115.67 83.04,-77.11 123.61,-266.23 123.61,-569.17l0 -4349.47c0,-301.1 -40.56,-490.21 -123.61,-567.33 -83.04,-77.11 -297.42,-115.67 -641.18,-115.67l-451.9 0 0 -837.22 4644.67 0c973.35,0 1695.63,145.05 2168.81,435.13 471.22,291.93 706.83,738.08 706.83,1340.28 0,530.61 -187.32,954.72 -563.93,1272.36 -374.65,317.62 -928.91,517.74 -1662.8,600.36 556.19,78.95 944.38,227.67 1166.48,447.99 220.16,222.15 349.54,604.04 388.17,1149.33l50.21 662.79c19.32,258.88 52.15,425.95 102.36,504.91 48.29,78.95 129.4,119.33 241.4,119.33 224.03,0 343.78,-403.92 359.22,-1211.75 0,-14.69 0,-25.7 0,-31.21l735.83 0c7.71,45.89 13.52,95.47 15.44,146.88 1.93,51.41 1.93,126.68 1.93,223.99 0,677.49 -129.4,1171.37 -388.19,1483.48 -256.86,312.13 -666.28,468.19 -1224.42,468.19 -459.64,0 -820.79,-119.35 -1081.49,-359.85 -258.8,-240.52 -397.85,-572.83 -411.35,-1000.63l-34.77 -866.58c-23.18,-576.51 -156.43,-969.42 -403.64,-1175.05 -247.2,-207.47 -714.57,-310.29 -1404.02,-310.29l-556.21 0 0 1970.03z"/>
    <path class="fil2" d="M21503.89 9291.59l0 -837.22 451.9 0c343.76,0 558.14,-38.56 641.18,-115.67 83.04,-77.11 123.61,-268.05 123.61,-570.99l0 -4351.31c0,-299.27 -40.56,-488.39 -123.61,-563.66 -83.04,-77.11 -297.42,-115.67 -641.18,-115.67l-451.9 0 0 -837.22 7647.78 0 0 2941.27 -880.65 0c-23.18,-840.88 -168.02,-1402.7 -432.6,-1683.6 -266.51,-280.92 -805.34,-420.45 -1618.4,-420.45l-1865.6 0 0 2269.3 440.34 0c486.67,0 805.32,-80.79 957.89,-240.52 150.65,-159.73 245.28,-526.93 281.98,-1103.44l880.65 -5.51 0 3706.88 -880.65 -5.51c-34.77,-633.41 -125.55,-1042.85 -278.1,-1226.44 -150.65,-185.43 -467.37,-277.24 -950.19,-277.24l-451.92 0 0 2599.77 2035.55 0c679.81,0 1147.18,-150.56 1400.16,-449.82 252.99,-299.27 413.28,-912.49 480.89,-1841.51l880.65 0 0 3128.54 -7647.78 0z"/>
    <path class="fil2" d="M31256.46 9291.59l0 -837.22 451.9 0c343.76,0 558.14,-38.56 641.18,-115.67 83.04,-77.11 123.61,-266.23 123.61,-567.33l0 -4351.31c0,-301.1 -40.56,-490.21 -123.61,-567.33 -83.04,-77.11 -297.42,-115.67 -641.18,-115.67l-451.9 0 0 -837.22 4412.93 0c1357.68,0 2385.1,312.13 3082.29,936.37 697.18,624.24 1044.81,1542.23 1044.81,2753.99 0,1211.76 -349.56,2131.59 -1046.74,2759.5 -699.13,627.92 -1726.55,941.87 -3080.36,941.87l-4412.93 0zm2850.53 -837.22l1017.77 0c608.36,0 1062.21,-44.06 1363.48,-134.03 303.21,-89.96 563.93,-242.36 782.17,-457.16 218.22,-214.82 390.11,-523.26 517.56,-925.34 125.55,-402.09 189.27,-850.07 189.27,-1345.79 0,-493.89 -63.71,-940.03 -189.27,-1338.46 -127.45,-398.41 -299.34,-705.02 -517.56,-919.83 -218.24,-214.8 -478.96,-367.2 -782.17,-458.99 -301.27,-91.8 -755.12,-137.71 -1363.48,-137.71l-1017.77 0 0 5717.3z"/>
   </g>
   <path class="fil3" d="M-0 13846.51l0 -2167.17 442.59 0 0 1797.84 1095.79 0 0 369.33 -1538.38 0zm1760.71 -1079.52c0,-222.82 33.57,-410.03 100.21,-561.64 49.34,-111.41 117.51,-211.62 203.49,-300.14 85.98,-88.52 180.09,-154.15 282.35,-197.39 136.34,-57.49 293.54,-86.48 471.58,-86.48 322.55,0 579.95,100.21 773.78,300.14 193.31,200.44 289.97,478.72 289.97,835.33 0,353.57 -96.14,630.31 -287.93,829.73 -191.79,199.93 -448.69,299.64 -769.7,299.64 -325.09,0 -584.03,-99.2 -775.82,-298.12 -191.79,-198.39 -287.93,-472.1 -287.93,-821.08zm454.79 -14.75c0,247.75 57.49,435.47 171.96,563.67 114.47,127.68 259.96,191.79 435.98,191.79 176.52,0 321.01,-63.61 434.46,-190.27 112.93,-127.18 169.4,-317.45 169.4,-571.29 0,-250.8 -54.95,-438.01 -165.34,-561.13 -109.89,-123.62 -255.88,-185.17 -438.52,-185.17 -182.13,0 -329.15,62.57 -440.55,187.21 -111.41,125.14 -167.38,313.37 -167.38,565.2zm3408.97 288.45l427.32 131.26c-65.61,240.63 -175,419.19 -327.61,536.19 -152.63,116.5 -345.94,175 -580.47,175 -290.48,0 -529.07,-99.2 -716.29,-297.6 -186.7,-198.41 -280.31,-469.56 -280.31,-813.96 0,-363.73 94.12,-646.6 281.85,-848.04 187.71,-201.46 434.96,-302.18 741.21,-302.18 267.58,0 484.81,79.36 651.68,237.57 99.71,93.6 173.98,227.91 223.84,403.41l-436.49 103.79c-25.93,-112.94 -79.86,-202.48 -161.77,-268.1 -82.42,-65.63 -182.13,-98.19 -299.14,-98.19 -162.28,0 -294.04,57.99 -394.76,174.5 -101.25,115.99 -151.61,304.22 -151.61,564.68 0,275.73 49.86,472.62 149.05,589.62 99.71,117.51 228.93,176.02 388.16,176.02 117.52,0 218.76,-37.14 303.2,-111.93 84.46,-74.78 145.51,-191.79 182.13,-352.04zm2775.1 805.82l-476.68 0 -188.73 -497.53 -876.55 0 -181.62 497.53 -468.02 0 848.56 -2185.48 467.51 0 875.53 2185.48zm-808.88 -866.87l-303.7 -808.87 -295.06 808.87 598.76 0zm2442.4 61.05l427.32 131.26c-65.61,240.63 -175,419.19 -327.61,536.19 -152.63,116.5 -345.94,175 -580.47,175 -290.48,0 -529.07,-99.2 -716.29,-297.6 -186.7,-198.41 -280.31,-469.56 -280.31,-813.96 0,-363.73 94.12,-646.6 281.85,-848.04 187.71,-201.46 434.96,-302.18 741.21,-302.18 267.58,0 484.81,79.36 651.68,237.57 99.71,93.6 173.98,227.91 223.84,403.41l-436.49 103.79c-25.93,-112.94 -79.86,-202.48 -161.77,-268.1 -82.42,-65.63 -182.13,-98.19 -299.14,-98.19 -162.28,0 -294.04,57.99 -394.76,174.5 -101.25,115.99 -151.61,304.22 -151.61,564.68 0,275.73 49.86,472.62 149.05,589.62 99.71,117.51 228.93,176.02 388.16,176.02 117.52,0 218.76,-37.14 303.2,-111.93 84.46,-74.78 145.51,-191.79 182.13,-352.04zm-959.97 1388.83l0 -175.01c102.77,10.69 196.89,16.29 282.85,16.29 88.52,0 154.66,-15.77 197.39,-47.82 33.07,-23.91 49.35,-54.43 49.35,-92.59 0,-33.58 -15.27,-63.07 -46.3,-88 -31.03,-24.93 -78.86,-37.14 -143.45,-37.14 -64.11,0 -129.22,10.18 -196.37,30.01l39.16 -148.03c77.32,-27.47 160.76,-40.7 250.3,-40.7 124.63,0 218.74,27.47 283.35,81.9 64.61,54.95 97.17,121.58 97.17,199.93 0,88.02 -35.62,158.73 -107.35,213.68 -96.66,74.77 -235.03,111.91 -415.11,111.91 -128.2,0 -225.37,-8.14 -291,-24.41zm3735.06 -583.01l-476.68 0 -188.73 -497.53 -876.55 0 -181.62 497.53 -468.01 0 848.55 -2185.48 467.51 0 875.53 2185.48zm-808.88 -866.87l-303.7 -808.87 -295.06 808.87 598.76 0zm-601.32 -1513.96l-192.29 0c-1.02,-22.91 -1.52,-40.7 -1.52,-53.42 0,-104.29 25.43,-184.67 76.31,-240.63 50.36,-56.47 115.99,-84.46 195.35,-84.46 35.1,0 67.15,3.56 97.17,11.19 30.01,7.64 84.44,29 163.29,64.09 79.36,35.1 140.93,52.91 186.19,52.91 31.54,0 58.01,-10.18 79.36,-30.01 21.89,-20.35 35.1,-53.93 41.22,-101.25l192.29 0c-1.02,135.83 -25.95,232.49 -74.78,291 -49.34,58.5 -112.43,87.5 -189.75,87.5 -34.08,0 -67.15,-3.56 -99.71,-10.69 -22.89,-6.1 -79.86,-27.47 -170.92,-63.59 -91.58,-36.11 -157.71,-53.92 -199.43,-53.92 -32.05,0 -56.47,9.66 -74.28,29.51 -18.31,19.33 -27.47,53.42 -28.49,101.75zm1554.17 1301.31c0,-222.82 33.57,-410.03 100.21,-561.64 49.34,-111.41 117.51,-211.62 203.49,-300.14 85.98,-88.52 180.09,-154.15 282.35,-197.39 136.34,-57.49 293.54,-86.48 471.58,-86.48 322.55,0 579.95,100.21 773.78,300.14 193.31,200.44 289.97,478.72 289.97,835.33 0,353.57 -96.14,630.31 -287.93,829.73 -191.79,199.93 -448.69,299.64 -769.7,299.64 -325.09,0 -584.03,-99.2 -775.82,-298.12 -191.79,-198.39 -287.93,-472.1 -287.93,-821.08zm454.79 -14.75c0,247.75 57.49,435.47 171.96,563.67 114.47,127.68 259.96,191.79 435.98,191.79 176.52,0 321.01,-63.61 434.46,-190.27 112.93,-127.18 169.4,-317.45 169.4,-571.29 0,-250.8 -54.95,-438.01 -165.34,-561.13 -109.89,-123.62 -255.88,-185.17 -438.52,-185.17 -182.13,0 -329.15,62.57 -440.55,187.21 -111.41,125.14 -167.38,313.37 -167.38,565.2zm2859.04 1094.27l0 -2185.48 1617.73 0 0 369.33 -1175.14 0 0 485.33 1092.73 0 0 369.33 -1092.73 0 0 592.16 1217.88 0 0 369.33 -1660.47 0zm2767.97 -708.15l430.38 -42.72c25.95,143.96 77.84,249.27 156.69,316.93 78.86,67.65 185.17,101.23 318.97,101.23 141.43,0 248.26,-30.02 319.99,-90.04 71.73,-60.03 107.85,-130.24 107.85,-210.62 0,-51.89 -15.26,-95.64 -45.28,-132.26 -30.01,-36.12 -82.92,-67.67 -158.21,-94.12 -51.38,-18.33 -168.38,-49.86 -351.53,-95.65 -235.53,-59.01 -400.87,-131.24 -496.01,-217.22 -133.8,-120.56 -200.43,-267.59 -200.43,-441.07 0,-111.41 31.54,-216.2 94.12,-313.37 63.07,-97.16 153.63,-170.92 272.16,-221.8 118.54,-50.88 260.98,-76.31 428.86,-76.31 273.19,0 479.22,60.53 617.09,182.12 138.37,121.58 210.6,283.37 217.74,486.35l-442.59 15.26c-18.83,-112.93 -59.01,-193.83 -120.56,-243.17 -61.57,-49.35 -154.15,-74.28 -277.27,-74.28 -127.18,0 -226.89,26.46 -298.62,79.36 -46.3,34.08 -69.69,79.36 -69.69,136.34 0,51.89 21.87,96.15 65.63,132.78 55.44,47.32 190.25,96.15 404.43,147.03 214.18,50.36 372.39,103.27 474.64,157.19 102.77,54.43 183.14,128.2 241.13,222.32 58.01,94.12 87,210.1 87,347.98 0,125.14 -34.59,242.67 -104.29,352.04 -69.69,109.37 -167.88,190.77 -295.06,243.68 -127.18,53.42 -285.91,79.86 -475.66,79.86 -276.23,0 -488.37,-63.59 -636.41,-191.29 -148.05,-127.18 -236.05,-312.86 -265.05,-556.54zm4120.69 708.15l-476.68 0 -188.73 -497.53 -876.55 0 -181.62 497.53 -468.02 0 848.56 -2185.48 467.51 0 875.53 2185.48zm-808.88 -866.87l-303.7 -808.87 -295.06 808.87 598.76 0zm1044.41 866.87l0 -2185.48 428.36 0 899.41 1464.62 0 -1464.62 409.01 0 0 2185.48 -442.08 0 -885.67 -1436.65 0 1436.65 -409.03 0zm2204.3 0l0 -2185.48 1617.75 0 0 369.33 -1175.15 0 0 485.33 1092.75 0 0 369.33 -1092.75 0 0 592.16 1217.89 0 0 369.33 -1660.48 0zm4004.71 0l-476.68 0 -188.73 -497.53 -876.55 0 -181.62 497.53 -468.02 0 848.56 -2185.48 467.51 0 875.53 2185.48zm-808.88 -866.87l-303.7 -808.87 -295.06 808.87 598.76 0zm1038.31 866.87l0 -2185.48 662.87 0 391.72 1490.56 387.14 -1490.56 664.38 0 0 2185.48 -409 0 -1.52 -1720.52 -430.9 1720.52 -425.3 0 -428.84 -1720.52 -1.54 1720.52 -409.01 0zm2548.7 0l0 -2185.48 1617.75 0 0 369.33 -1175.15 0 0 485.33 1092.75 0 0 369.33 -1092.75 0 0 592.16 1217.89 0 0 369.33 -1660.48 0zm2035.93 0l0 -2185.48 428.36 0 899.42 1464.62 0 -1464.62 409.01 0 0 2185.48 -442.08 0 -885.69 -1436.65 0 1436.65 -409.03 0zm2695.74 0l0 -1816.15 -647.1 0 0 -369.33 1733.75 0 0 369.33 -644.06 0 0 1816.15 -442.59 0zm1226.55 -1079.52c0,-222.82 33.57,-410.03 100.2,-561.64 49.34,-111.41 117.51,-211.62 203.49,-300.14 85.98,-88.52 180.09,-154.15 282.35,-197.39 136.34,-57.49 293.54,-86.48 471.58,-86.48 322.55,0 579.95,100.21 773.78,300.14 193.31,200.44 289.97,478.72 289.97,835.33 0,353.57 -96.14,630.31 -287.93,829.73 -191.79,199.93 -448.69,299.64 -769.7,299.64 -325.09,0 -584.03,-99.2 -775.82,-298.12 -191.78,-198.39 -287.91,-472.1 -287.91,-821.08zm454.78 -14.75c0,247.75 57.49,435.47 171.96,563.67 114.47,127.68 259.96,191.79 435.98,191.79 176.52,0 321.01,-63.61 434.46,-190.27 112.93,-127.18 169.4,-317.45 169.4,-571.29 0,-250.8 -54.95,-438.01 -165.34,-561.13 -109.89,-123.62 -255.88,-185.17 -438.52,-185.17 -182.13,0 -329.15,62.57 -440.55,187.21 -111.41,125.14 -167.38,313.37 -167.38,565.2z"/>
  </g>
 </g>
</svg>
