<?xml version="1.0" encoding="UTF-8"?>
<!DOCTYPE svg PUBLIC "-//W3C//DTD SVG 1.1//EN" "http://www.w3.org/Graphics/SVG/1.1/DTD/svg11.dtd">
<!-- Creator: CorelDRAW -->
<svg xmlns="http://www.w3.org/2000/svg" xml:space="preserve" width="883.814mm" height="238.292mm" version="1.1" style="shape-rendering:geometricPrecision; text-rendering:geometricPrecision; image-rendering:optimizeQuality; fill-rule:evenodd; clip-rule:evenodd"
viewBox="0 0 25408.52 6850.6"
 xmlns:xlink="http://www.w3.org/1999/xlink"
 xmlns:xodm="http://www.corel.com/coreldraw/odm/2003">
 <defs>
  <style type="text/css">
   <![CDATA[
    .fil1 {fill:#E5332A;fill-rule:nonzero}
    .fil0 {fill:#95A0A7;fill-rule:nonzero}
   ]]>
  </style>
 </defs>
 <g id="Camada_x0020_1">
  <metadata id="CorelCorpID_0Corel-Layer"/>
  <path class="fil0" d="M4497.48 4127.46c-246.7,379.49 -673.66,626.18 -1133.87,626.18 -464.92,0 -887.15,-246.7 -1133.85,-626.18l2267.72 0zm1029.46 0c-308.37,915.6 -1162.31,1575.04 -2163.34,1575.04 -1001,0 -1854.97,-664.18 -2168.06,-1575.04l550.32 0c279.9,626.18 896.65,1062.7 1617.74,1062.7 721.12,0 1337.86,-436.52 1617.77,-1062.7l545.57 0zm744.84 0l0 1598.75c0,374.83 -298.88,673.72 -668.92,673.72l-4478.48 0c-374.79,0 -673.67,-298.89 -673.67,-673.72l0 -1598.75 289.39 0c317.86,1157.56 1371.07,2011.5 2623.51,2011.5 1252.47,0 2305.68,-853.94 2623.55,-2011.5l284.63 0zm-5821.08 -986.79l5821.07 0 0 569.27 -5821.07 0 0 -569.27zm2912.9 -1043.71c460.21,0 882.43,246.7 1133.87,630.96l-2267.72 0c251.45,-384.26 668.93,-630.96 1133.85,-630.96zm1617.77 630.96c-279.9,-630.96 -896.64,-1067.47 -1617.77,-1067.47 -721.1,0 -1337.84,436.51 -1617.74,1067.47l-550.32 0c313.09,-915.63 1167.06,-1579.8 2168.06,-1579.8 1001.03,0 1854.97,659.44 2163.34,1579.8l-545.57 0zm-4530.67 0l0 -1603.51c0,-370.05 298.88,-673.67 673.67,-673.67l4478.48 0c370.04,0 668.92,303.62 668.92,673.67l0 1603.51 -284.63 0c-317.87,-1162.32 -1371.08,-2016.27 -2623.55,-2016.27 -1252.44,0 -2305.65,853.94 -2623.51,2016.27l-289.39 0zm673.67 -2727.92c-621.49,0 -1124.38,502.89 -1124.38,1124.4l0 4601.8c0,621.52 502.89,1124.4 1124.38,1124.4l4478.48 0c616.74,0 1119.63,-502.88 1119.63,-1124.4l0 -4601.8c0,-621.51 -502.89,-1124.4 -1119.63,-1124.4l-4478.48 0z"/>
  <g id="_2434906085232">
   <polygon class="fil1" points="7891.24,3235.72 7246.38,3235.72 7246.38,716.72 7891.24,716.72 7891.24,1892.49 9084.85,716.72 9872.25,716.72 8760.63,1817.68 9875.8,3235.72 9091.96,3235.72 8325.93,2259.48 7891.24,2701.27 "/>
   <path class="fil1" d="M11158.3 1254.74c-121.16,0 -217.36,96.19 -217.36,217.34l0 623.51 1232.78 0 0 -623.51c0,-121.15 -96.2,-217.34 -213.76,-217.34l-801.66 0zm1029.68 -538.02c349.12,0 630.63,281.48 630.63,630.64l0 1888.35 -644.89 0 0 -602.14 -1232.78 0 0 602.14 -641.31 0 0 -1888.35c0,-349.16 281.46,-630.64 623.51,-630.64l1264.85 0z"/>
   <path class="fil1" d="M15989.43 2715.53l0 520.19 -1888.35 0c-349.12,0 -630.61,-281.46 -630.61,-630.65l0 -1888.35 2518.97 0 0 520.2 -1877.61 0 0 477.43 1599.74 0 -149.67 523.77 -1450.07 0 0 260.09c0,117.58 96.2,217.33 217.28,217.33l1660.33 0z"/>
   <path class="fil1" d="M19074.79 716.72l0 520.19 -1663.88 0c-121.16,0 -213.81,92.65 -213.81,217.34l0 313.55 1610.49 0 -149.67 523.75 -1460.82 0 0 944.17 -644.82 0 0 -1884.79c0,-352.73 284.97,-634.21 630.61,-634.21l1891.9 0z"/>
   <path class="fil1" d="M22156.52 2715.53l0 520.19 -1888.35 0c-349.12,0 -630.61,-281.46 -630.61,-630.65l0 -1888.35 2518.97 0 0 520.2 -1877.61 0 0 477.43 1599.75 0 -149.67 523.77 -1450.07 0 0 260.09c0,117.58 96.21,217.33 217.28,217.33l1660.33 0z"/>
   <path class="fil1" d="M24632.59 1892.5l0 -434.67c0,-128.27 -89.02,-217.34 -213.73,-217.34l-1019.05 0 0 865.81 1019.05 0c124.71,0 213.73,-89.1 213.73,-213.79zm684.08 1343.22l-751.77 0 -420.43 -587.87 -744.66 0 0 587.87 -644.83 0 0 -2519.01 1888.35 0c352.67,0 634.17,285.06 634.17,630.65l0 694.78c0,349.15 -260.09,520.19 -399.02,570.06l438.2 623.51z"/>
   <path class="fil0" d="M7733.93 5097.5c211.32,0 270.63,-61.17 270.63,-230.31 0,-170.95 -59.31,-224.94 -270.63,-224.94l-326.23 0 0 455.25 326.23 0zm259.51 669.32l0 -226.71c0,-215.9 -79.71,-314.86 -313.25,-314.86l-272.49 0 0 541.58 -168.66 0 0 -1255.91 502.32 0c307.69,0 437.44,86.36 437.44,352.68 0,169.1 -64.89,264.47 -190.92,309.45 116.77,55.8 174.23,169.13 174.23,356.28l0 237.49 -168.66 0z"/>
   <polygon class="fil0" points="8364.08,4510.9 8536.45,4510.9 8536.45,5766.82 8364.08,5766.82 "/>
   <path class="fil0" d="M9227.82 5095.68c211.3,0 270.61,-59.35 270.61,-230.31 0,-170.91 -59.31,-223.12 -270.61,-223.12l-318.83 0 0 453.43 318.83 0zm-487.51 671.14l0 -1255.91 493.06 0c307.68,0 437.46,88.18 437.46,352.69 0,260.88 -135.31,361.66 -439.32,361.66l-322.52 0 0 541.57 -168.68 0z"/>
   <path class="fil0" d="M11016.42 4874.37c-3.71,-170.91 -114.92,-244.72 -313.23,-244.72 -211.34,0 -324.4,59.39 -324.4,230.31 0,381.48 832.24,18 832.24,552.39 0,246.5 -209.46,367.07 -515.28,367.07 -333.65,0 -498.63,-143.94 -500.48,-385.04l172.4 0c1.86,172.74 127.89,251.88 331.79,251.88 207.6,0 339.19,-59.35 339.19,-232.09 0,-372.47 -832.25,-32.38 -832.25,-550.58 0,-248.31 190.92,-368.88 498.6,-368.88 333.65,0 480.08,138.57 483.79,379.66l-172.37 0z"/>
   <path class="fil0" d="M12006.13 5261.23c-7.38,-192.52 -57.46,-259.1 -239.11,-259.1 -183.47,0 -246.5,68.36 -255.78,259.1l494.89 0zm-494.89 113.33c3.71,208.75 64.88,284.3 255.78,284.3 144.61,0 237.26,-55.76 242.83,-161.92l146.43 0c-1.86,179.92 -135.29,284.26 -392.93,284.26 -300.28,0 -405.96,-125.94 -405.96,-449.81 0,-322.09 111.21,-449.83 409.63,-449.83 303.99,0 394.82,129.57 394.82,457.02l0 35.97 -650.6 0z"/>
   <path class="fil0" d="M12324.9 5766.82l0 -867.25 153.83 0 0 156.54c55.65,-93.55 161.29,-170.95 316.99,-170.95l46.32 0 0 134.98 -64.88 0c-172.38,0 -298.43,89.96 -298.43,329.28l0 417.41 -153.83 0z"/>
   <polygon class="fil0" points="13270.2,5766.82 12906.89,4899.57 13081.12,4899.57 13355.47,5592.27 13631.66,4899.57 13800.32,4899.57 13433.29,5766.82 "/>
   <path class="fil0" d="M13944.82 4899.57l153.85 0 0 867.25 -153.85 0 0 -867.25zm74.16 -210.53c-68.59,0 -90.82,-23.38 -90.82,-89.96 0,-66.58 22.23,-91.77 90.82,-91.77 68.6,0 94.54,25.19 94.54,91.77 0,66.58 -25.94,89.96 -94.54,89.96z"/>
   <path class="fil0" d="M14532.4 5926.95l79.73 -147.53c-253.96,-16.2 -344.79,-147.54 -344.79,-448.02 0,-323.86 105.68,-449.83 407.82,-449.83 246.5,0 368.84,109.78 374.41,295.11l-150.14 0c-3.71,-118.79 -88.98,-169.13 -224.27,-169.13 -198.35,0 -252.11,77.36 -252.11,323.86 0,244.68 53.75,323.86 252.11,323.86 137.15,0 220.55,-52.17 224.27,-170.92l150.14 0c-5.57,174.51 -113.06,282.48 -329.95,295.08l-40.79 75.59c118.63,0 177.95,44.98 177.95,124.12 0,88.18 -70.41,154.77 -213.13,154.77 -131.62,0 -209.46,-53.98 -215.03,-140.35l122.34 0c1.85,26.97 31.51,48.57 92.69,48.57 66.69,0 90.83,-21.6 90.83,-59.35 0,-46.79 -38.95,-55.8 -114.96,-55.8l-87.12 0z"/>
   <path class="fil0" d="M15820.58 5331.4c0,-246.5 -57.47,-325.68 -263.2,-325.68 -205.75,0 -259.49,79.18 -259.49,325.68 0,244.68 53.74,323.86 259.49,323.86 205.74,0 263.2,-79.18 263.2,-323.86zm-678.4 0c0,-323.86 105.67,-449.83 415.2,-449.83 311.42,0 418.91,125.97 418.91,449.83 0,323.86 -107.49,449.79 -418.91,449.79 -309.53,0 -415.2,-125.93 -415.2,-449.79z"/>
   <path class="fil0" d="M16747.34 5164.08c-3.71,-109.79 -88.97,-161.95 -229.83,-161.95 -140.86,0 -224.31,34.2 -224.31,142.12 0,244.72 611.71,-1.77 611.71,368.88 0,181.73 -159.42,268.06 -389.26,268.06 -257.63,0 -383.69,-102.56 -387.4,-284.25l150.14 0c3.71,109.75 96.4,163.72 240.97,163.72 139.01,0 229.84,-37.79 229.84,-142.16 0,-241.09 -609.81,-1.77 -609.81,-370.66 0,-179.93 148.28,-266.29 379.97,-266.29 252.07,0 370.7,104.37 376.27,282.51l-148.29 0z"/>
   <polygon class="fil0" points="17516.46,4510.9 17688.84,4510.9 17688.84,5766.82 17516.46,5766.82 "/>
   <path class="fil0" d="M18493.26 5766.82l0 -511.01c0,-181.73 -40.79,-246.5 -207.59,-246.5 -161.29,0 -250.26,73.77 -250.26,300.48l0 457.02 -153.81 0 0 -867.25 153.81 0 0 118.75c50.08,-80.95 142.76,-136.75 289.2,-136.75 244.64,0 324.37,115.15 324.37,358.06l0 527.2 -155.71 0z"/>
   <path class="fil0" d="M19473.73 5333.18c0,-248.27 -90.83,-327.45 -253.92,-327.45 -194.65,0 -253.96,79.18 -253.96,327.45 0,242.91 59.31,325.68 253.96,325.68 163.09,0 253.92,-79.14 253.92,-325.68zm-1.86 433.65l0 -118.75c-51.9,80.95 -144.57,133.12 -287.29,133.12 -253.97,0 -372.59,-125.93 -372.59,-448.02 0,-325.64 109.38,-451.61 374.45,-451.61 142.72,0 235.4,55.79 285.43,136.75l0 -507.42 153.85 0 0 1255.92 -153.85 0z"/>
   <path class="fil0" d="M20419.01 5766.82l0 -120.57c-48.17,79.18 -142.72,134.94 -289.15,134.94 -242.83,0 -320.67,-109.75 -320.67,-356.25l0 -525.38 153.81 0 0 509.19c0,179.92 37.09,248.31 205.75,248.31 166.85,0 250.25,-84.58 250.25,-341.86l0 -415.65 155.71 0 0 867.25 -155.71 0z"/>
   <path class="fil0" d="M21364.26 5164.08c-3.71,-109.79 -88.97,-161.95 -229.84,-161.95 -140.86,0 -224.31,34.2 -224.31,142.12 0,244.72 611.71,-1.77 611.71,368.88 0,181.73 -159.42,268.06 -389.25,268.06 -257.63,0 -383.69,-102.56 -387.4,-284.25l150.14 0c3.71,109.75 96.4,163.72 240.97,163.72 139.01,0 229.83,-37.79 229.83,-142.16 0,-241.09 -609.81,-1.77 -609.81,-370.66 0,-179.93 148.29,-266.29 379.98,-266.29 252.07,0 370.7,104.37 376.26,282.51l-148.28 0z"/>
   <path class="fil0" d="M22092.66 5766.82c-257.63,0 -341.04,-111.56 -341.04,-340.05l0 -408.46 -152 0 0 -118.75 152 0 0 -255.5 153.85 0 0 255.5 316.96 0 0 118.75 -316.96 0 0 395.85c0,161.92 38.91,226.72 209.46,226.72l107.49 0 0 125.93 -129.77 0z"/>
   <path class="fil0" d="M22363.25 5766.82l0 -867.25 153.82 0 0 156.54c55.64,-93.55 161.28,-170.95 316.99,-170.95l46.32 0 0 134.98 -64.88 0c-172.38,0 -298.43,89.96 -298.43,329.28l0 417.41 -153.82 0z"/>
   <path class="fil0" d="M22997.11 4899.57l153.85 0 0 867.25 -153.85 0 0 -867.25zm74.16 -210.53c-68.59,0 -90.83,-23.38 -90.83,-89.96 0,-66.58 22.24,-91.77 90.83,-91.77 68.6,0 94.54,25.19 94.54,91.77 0,66.58 -25.94,89.96 -94.54,89.96z"/>
   <path class="fil0" d="M23718.13 5378.16c-161.28,0 -240.97,41.39 -240.97,149.35 0,98.96 70.46,136.76 196.47,136.76 172.41,0 289.19,-75.59 289.19,-286.11l-244.68 0zm242.83 388.67l0 -122.34c-57.45,82.77 -163.13,136.71 -316.99,136.71 -205.75,0 -322.52,-79.14 -322.52,-250.09 0,-183.52 140.86,-266.29 381.83,-266.29l259.53 0 0 -44.98c0,-158.31 -59.31,-219.53 -239.11,-219.53 -144.61,0 -231.73,53.99 -237.26,163.77l-146.43 0c3.67,-178.14 135.29,-282.51 385.54,-282.51 272.44,0 387.36,100.78 387.36,331.08l0 554.17 -151.95 0z"/>
   <path class="fil0" d="M24301.92 4899.57l153.85 0 0 867.25 -153.85 0 0 -867.25zm74.16 -210.53c-68.59,0 -90.83,-23.38 -90.83,-89.96 0,-66.58 22.24,-91.77 90.83,-91.77 68.59,0 94.54,25.19 94.54,91.77 0,66.58 -25.95,89.96 -94.54,89.96z"/>
   <path class="fil0" d="M25250.95 5164.08c-3.71,-109.79 -88.97,-161.95 -229.83,-161.95 -140.86,0 -224.31,34.2 -224.31,142.12 0,244.72 611.71,-1.77 611.71,368.88 0,181.73 -159.42,268.06 -389.26,268.06 -257.63,0 -383.69,-102.56 -387.4,-284.25l150.14 0c3.71,109.75 96.4,163.72 240.97,163.72 139.01,0 229.84,-37.79 229.84,-142.16 0,-241.09 -609.81,-1.77 -609.81,-370.66 0,-179.93 148.28,-266.29 379.97,-266.29 252.07,0 370.7,104.37 376.27,282.51l-148.29 0z"/>
  </g>
 </g>
</svg>
