<?xml version="1.0" encoding="UTF-8"?>
<!DOCTYPE svg PUBLIC "-//W3C//DTD SVG 1.1//EN" "http://www.w3.org/Graphics/SVG/1.1/DTD/svg11.dtd">
<!-- Creator: CorelDRAW -->
<svg xmlns="http://www.w3.org/2000/svg" xml:space="preserve" width="47.6011mm" height="20.364mm" version="1.1" style="shape-rendering:geometricPrecision; text-rendering:geometricPrecision; image-rendering:optimizeQuality; fill-rule:evenodd; clip-rule:evenodd"
viewBox="0 0 88.38 37.81"
 xmlns:xlink="http://www.w3.org/1999/xlink"
 xmlns:xodm="http://www.corel.com/coreldraw/odm/2003">
 <defs>
  <style type="text/css">
   <![CDATA[
    .fil4 {fill:none}
    .fil2 {fill:none;fill-rule:nonzero}
    .fil1 {fill:#FEFEFE}
    .fil3 {fill:#9A122A}
    .fil0 {fill:#9A122A;fill-rule:nonzero}
   ]]>
  </style>
   <clipPath id="id0" style="clip-rule:nonzero">
    <path d="M42.55 9.79c-2.44,0 -3.72,1.09 -4.36,2.71 -0.42,1.11 -0.56,2.2 -0.56,3.58 0,1.4 0.12,2.46 0.54,3.6 0.22,0.56 0.49,1.04 0.84,1.42 0.69,0.75 1.92,1.27 3.49,1.27 1.97,0 3.35,-0.73 4.03,-1.98 0.67,-1.26 0.91,-2.55 0.91,-4.31 0,-1.4 -0.12,-2.47 -0.54,-3.58 -0.22,-0.56 -0.51,-1.04 -0.86,-1.42 -0.69,-0.78 -1.89,-1.29 -3.49,-1.29zm2.48 6.29c0,1.38 -0.12,2.53 -0.67,3.31 -0.35,0.45 -0.96,0.76 -1.82,0.76 -1.3,0 -1.95,-0.62 -2.24,-1.66 -0.2,-0.75 -0.25,-1.42 -0.25,-2.42 0,-1.42 0.12,-2.56 0.67,-3.36 0.35,-0.49 0.96,-0.8 1.82,-0.8 1.06,0 1.74,0.42 2.07,1.24 0.34,0.82 0.42,1.64 0.42,2.93zm9.62 4.53c0.34,0 0.57,-0.16 0.69,-0.51l2.29 -6.64 0.34 8.15c0.02,0.36 0.19,0.55 0.52,0.55l1.31 0c0.32,0 0.49,-0.18 0.47,-0.55l-0.66 -11.06c-0.02,-0.36 -0.19,-0.55 -0.54,-0.55l-1.79 0c-0.34,0 -0.56,0.16 -0.67,0.51l-2.48 7.22 -2.49 -7.22c-0.12,-0.35 -0.35,-0.51 -0.69,-0.51l-1.79 0c-0.35,0 -0.52,0.18 -0.54,0.55l-0.66 11.06c-0.02,0.36 0.15,0.55 0.47,0.55l1.28 0c0.34,0 0.51,-0.18 0.52,-0.55l0.35 -8.17 2.29 6.66c0.12,0.35 0.34,0.51 0.67,0.51l1.08 0zm14.36 -0.02c0,-0.36 -0.17,-0.55 -0.51,-0.55l-4.77 0 0 -3.16 4.31 0c0.34,0 0.51,-0.18 0.51,-0.55l0 -0.95c0,-0.36 -0.17,-0.55 -0.51,-0.55l-4.31 0 0 -2.73 4.6 0c0.34,0 0.51,-0.18 0.51,-0.55l0 -1.02c0,-0.36 -0.17,-0.55 -0.51,-0.55l-6.59 0c-0.34,0 -0.51,0.18 -0.51,0.55l0 11.06c0,0.36 0.17,0.55 0.51,0.55l6.76 0c0.34,0 0.51,-0.18 0.51,-0.55l0 -1.02zm0.29 -4.55c0.02,4.2 1.8,6.29 5.37,6.29 1.18,0 2.22,-0.13 3.15,-0.4 0.34,-0.09 0.51,-0.33 0.51,-0.71l0 -4.49c0,-0.36 -0.17,-0.55 -0.51,-0.55l-1.25 0c-0.34,0 -0.51,0.18 -0.51,0.55l0 3.46c-0.32,0.04 -0.76,0.05 -1.28,0.05 -1.95,0 -2.93,-1.42 -2.93,-4.26 0,-2.8 1.13,-4.2 3.37,-4.2 0.56,0 1.16,0.09 1.79,0.25 0.34,0.09 0.54,-0.02 0.61,-0.36l0.19 -0.89c0.07,-0.35 -0.07,-0.58 -0.39,-0.67 -0.86,-0.22 -1.67,-0.33 -2.43,-0.33 -1.5,0 -2.76,0.4 -3.86,1.33 -1.09,0.93 -1.77,2.62 -1.84,4.93zm18.7 6.11c0.34,0 0.45,-0.16 0.34,-0.51l-3.44 -11.13c-0.12,-0.35 -0.34,-0.51 -0.67,-0.51l-1.74 0c-0.34,0 -0.56,0.16 -0.67,0.51l-3.57 11.13c-0.12,0.35 0,0.51 0.34,0.51l1.53 0c0.34,0 0.56,-0.18 0.66,-0.53l0.69 -2.35 3.71 0 0.72 2.36c0.1,0.35 0.32,0.51 0.66,0.51l1.45 0zm-5.96 -4.86l1.3 -4.78 1.26 4.78 -2.56 0z"/>
   </clipPath>
   <clipPath id="id1" style="clip-rule:nonzero">
    <path d="M45.53 32.02c-0.03,0.11 0.01,0.2 0.11,0.25 0.63,0.27 1.27,0.41 1.95,0.41 0.78,0 1.43,-0.2 1.95,-0.58 0.53,-0.4 0.79,-1 0.79,-1.82 0,-1.2 -0.72,-1.83 -2.2,-2.37 -1.16,-0.43 -1.76,-0.82 -1.76,-1.72 0,-0.93 0.57,-1.39 1.71,-1.39 0.4,0 0.88,0.07 1.47,0.21 0.13,0.04 0.19,-0.01 0.23,-0.15l0.07 -0.3c0.03,-0.12 -0.01,-0.2 -0.14,-0.24 -0.56,-0.14 -1.11,-0.21 -1.63,-0.21 -1.32,0 -2.54,0.51 -2.54,2.23 0,0.58 0.17,1.04 0.53,1.37 0.36,0.33 0.91,0.63 1.64,0.92 0.63,0.24 0.86,0.33 1.26,0.62 0.4,0.28 0.55,0.64 0.55,1.15 0,1.09 -0.74,1.52 -1.83,1.52 -0.64,0 -1.26,-0.12 -1.86,-0.36 -0.1,-0.04 -0.16,0 -0.19,0.11l-0.09 0.35zm10.03 -0.05c0,-0.12 -0.06,-0.19 -0.17,-0.19l-3.53 0 0 -3.17 3.21 0c0.11,0 0.17,-0.06 0.17,-0.19l0 -0.36c0,-0.12 -0.06,-0.19 -0.17,-0.19l-3.21 0 0 -2.91 3.4 0c0.11,0 0.17,-0.06 0.17,-0.19l0 -0.36c0,-0.12 -0.06,-0.19 -0.17,-0.19l-4.01 0c-0.11,0 -0.17,0.06 -0.17,0.19l0 7.89c0,0.12 0.06,0.19 0.17,0.19l4.14 0c0.11,0 0.17,-0.06 0.17,-0.19l0 -0.36zm5.12 0.4c0.07,0.1 0.16,0.15 0.27,0.15l0.62 0c0.11,0 0.14,-0.05 0.07,-0.15l-2.17 -3.22c1.27,-0.3 1.9,-1.12 1.9,-2.48 0,-1.26 -0.54,-1.9 -1.33,-2.17 -0.55,-0.2 -1.03,-0.25 -1.71,-0.25 -0.56,0 -1.13,0.05 -1.71,0.14 -0.11,0.02 -0.17,0.1 -0.17,0.21l0 7.73c0,0.12 0.06,0.19 0.17,0.19l0.44 0c0.11,0 0.17,-0.06 0.17,-0.19l0 -3.17c0.4,0.06 0.79,0.1 1.16,0.1l0.24 0 2.04 3.1zm-3.44 -7.36c0.42,-0.06 0.79,-0.09 1.1,-0.09 0.65,0 1.09,0.06 1.55,0.31 0.46,0.24 0.7,0.75 0.7,1.51 0,1.49 -1.09,1.87 -2.17,1.87 -0.37,0 -0.76,-0.05 -1.18,-0.13l0 -3.47zm9.89 -0.75c-0.1,0 -0.18,0.06 -0.23,0.17l-2.28 7.12 -2.25 -7.12c-0.05,-0.11 -0.13,-0.17 -0.23,-0.17l-0.54 0c-0.13,0 -0.16,0.06 -0.11,0.17l2.59 7.92c0.05,0.11 0.13,0.17 0.23,0.17l0.61 0c0.1,0 0.18,-0.06 0.23,-0.17l2.58 -7.92c0.05,-0.11 0.01,-0.17 -0.11,-0.17l-0.48 0zm1.85 0.19c0,-0.12 -0.06,-0.19 -0.17,-0.19l-0.44 0c-0.11,0 -0.17,0.06 -0.17,0.19l0 7.89c0,0.12 0.06,0.19 0.17,0.19l0.44 0c0.11,0 0.17,-0.06 0.17,-0.19l0 -7.89zm1.74 3.88c0,-1.29 0.22,-2.2 0.65,-2.73 0.44,-0.53 1.04,-0.8 1.82,-0.8 0.55,0 1.07,0.06 1.55,0.2 0.11,0.04 0.18,-0.01 0.21,-0.12l0.07 -0.32c0.02,-0.11 -0.02,-0.19 -0.13,-0.22 -0.48,-0.16 -1.05,-0.23 -1.73,-0.23 -0.88,0 -1.6,0.25 -2.26,0.85 -0.64,0.61 -1.03,1.78 -1.03,3.4 0,2.46 0.88,4.35 3.32,4.35 0.63,0 1.19,-0.06 1.66,-0.17 0.09,-0.02 0.14,-0.1 0.13,-0.22l-0.03 -0.31c-0.01,-0.12 -0.07,-0.17 -0.16,-0.16 -0.55,0.1 -1.04,0.15 -1.49,0.15 -0.86,0 -1.5,-0.27 -1.94,-0.8 -0.42,-0.53 -0.64,-1.48 -0.64,-2.84zm9.51 3.65c0,-0.12 -0.06,-0.19 -0.17,-0.19l-3.53 0 0 -3.17 3.21 0c0.11,0 0.17,-0.06 0.17,-0.19l0 -0.36c0,-0.12 -0.06,-0.19 -0.17,-0.19l-3.21 0 0 -2.91 3.4 0c0.11,0 0.17,-0.06 0.17,-0.19l0 -0.36c0,-0.12 -0.06,-0.19 -0.17,-0.19l-4.01 0c-0.11,0 -0.17,0.06 -0.17,0.19l0 7.89c0,0.12 0.06,0.19 0.17,0.19l4.14 0c0.11,0 0.17,-0.06 0.17,-0.19l0 -0.36z"/>
   </clipPath>
   <clipPath id="id2">
    <path d="M86.74 5.12c0.84,0 1.53,0.74 1.53,1.65 0,0.91 -0.68,1.65 -1.53,1.65 -0.84,0 -1.53,-0.74 -1.53,-1.65 0,-0.91 0.68,-1.65 1.53,-1.65zm0 0.21c0.74,0 1.34,0.65 1.34,1.44 0,0.8 -0.6,1.44 -1.34,1.44 -0.74,0 -1.34,-0.65 -1.34,-1.44 0,-0.8 0.6,-1.44 1.34,-1.44z"/>
   </clipPath>
   <clipPath id="id3" style="clip-rule:nonzero">
    <path d="M86.09 7.55l0 -1.55 0.61 0c0.15,0 0.27,0.01 0.34,0.04 0.07,0.03 0.13,0.08 0.17,0.15 0.04,0.07 0.06,0.15 0.06,0.24 0,0.12 -0.03,0.21 -0.09,0.29 -0.06,0.08 -0.16,0.12 -0.28,0.14 0.06,0.04 0.11,0.08 0.15,0.13 0.04,0.05 0.1,0.13 0.16,0.25l0.18 0.3 -0.35 0 -0.21 -0.34c-0.07,-0.12 -0.13,-0.2 -0.15,-0.23 -0.03,-0.03 -0.06,-0.05 -0.09,-0.06 -0.03,-0.01 -0.08,-0.02 -0.15,-0.02l-0.06 0 0 0.65 -0.29 0zm0.29 -0.9l0.21 0c0.14,0 0.23,-0.01 0.26,-0.02 0.03,-0.01 0.06,-0.03 0.08,-0.07 0.02,-0.03 0.03,-0.07 0.03,-0.12 0,-0.05 -0.01,-0.09 -0.04,-0.13 -0.03,-0.03 -0.06,-0.05 -0.11,-0.06 -0.02,-0 -0.09,-0.01 -0.21,-0.01l-0.23 0 0 0.39z"/>
   </clipPath>
   <clipPath id="id4">
    <path d="M9.92 7.98c-0.27,0.22 -0.88,1.41 -1.09,1.86 -0.32,0.68 -0.58,1.44 -0.77,2.23 -0.29,1.19 0.2,0.32 -1.53,1.37 -0.51,0.31 -1.26,0.87 -1.28,1.69l11.5 1.2 -8.34 -0.45c0,1.84 0.45,3.87 1.16,5.46 0.14,0.32 0.6,1.22 0.79,1.41 0.08,0.21 0.47,0.69 0.62,0.89 0.27,0.36 0.42,0.51 0.71,0.82l1.1 1.15c0.58,0.55 1.33,1.32 1.73,2.07 0.33,0.64 0.65,1.67 0.34,2.51 -0.49,1.31 -2.36,1.84 -4.02,1.94 -1.63,0.1 -4.04,-0.04 -5.84,0.01 0.27,0.42 1.84,1.79 2.24,2.09 2.67,2.05 5.67,3.28 8.97,3.53l0.27 0.05 1.93 0c0.12,-0.05 1.58,-0.18 1.89,-0.24 0.6,-0.1 1.18,-0.23 1.73,-0.4 1.08,-0.32 2.14,-0.73 3.07,-1.22 1.45,-0.77 3.24,-2.01 4.36,-3.23 0.18,-0.2 0.39,-0.36 0.54,-0.58 -0.62,-0.04 -1.36,-0.01 -1.99,-0.01 -1.69,0 -4.24,0.12 -5.7,-0.32 -1.01,-0.3 -2.01,-0.84 -2.24,-1.89 -0.13,-0.59 0.02,-1.33 0.22,-1.82 0.25,-0.6 0.49,-0.89 0.81,-1.32 0.37,-0.49 1.98,-2.01 2.51,-2.65 1.22,-1.47 2.02,-2.8 2.53,-4.87 0.44,-1.75 0.43,-3.63 0.48,-3.83l3.13 -0.32c-0,-0.76 -0.68,-1.29 -1.1,-1.58 -0.39,-0.26 -0.86,-0.5 -1.3,-0.68 -0.29,-0.12 -0.25,-0.04 -0.31,-0.38 -0.43,-2.25 -1.74,-4.71 -3.31,-6.14 -0.17,-0.16 -0.11,-0.22 -0.17,-0.5 -0.04,-0.21 -0.09,-0.34 -0.17,-0.54 -0.28,-0.62 -0.87,-1.06 -1.66,-0.6 -0.24,0.14 -0.36,-0.06 -0.9,-0.27 -0.32,-0.13 -0.68,-0.28 -1.02,-0.34 -0.1,-0.08 -0.61,-0.15 -0.8,-0.19 -0.23,-0.04 -0.16,-0.05 -0.27,-0.24 -0.5,-0.85 -1.45,-1.26 -2.3,-0.28 -0.4,0.46 -0.14,0.45 -0.53,0.52 -0.79,0.14 -1.64,0.43 -2.35,0.8 -0.32,0.16 -0.2,-0.06 -0.71,-0.17 -0.68,-0.14 -1.07,0.35 -1.28,0.82 -0.18,0.41 -0.17,0.76 -0.21,0.86 -0.03,0.07 -0.43,0.44 -0.52,0.54 -0.21,0.23 -0.86,0.94 -0.95,1.2zm-9.92 9.99l0 1.91c0.08,0.2 0.11,1.25 0.16,1.58 0.07,0.51 0.15,1.03 0.25,1.51 0.2,0.96 0.45,1.87 0.76,2.73 0.29,0.81 0.66,1.7 1.04,2.4l0.95 1.63c0.11,0.18 0.25,0.36 0.34,0.52 1.24,0.04 2.54,0 3.79,0 1.27,-0 2.55,0.02 3.82,0 0.8,-0.01 2.77,-0.36 2.76,-1.14 -0,-0.62 -1.75,-1.32 -2.32,-1.62 -3.5,-1.83 -6.37,-4 -7.54,-8.34 -2.52,-9.36 4.51,-17.26 13.5,-17.26 8.48,0 16.12,7.4 13.5,17.26 -0.58,2.19 -1.74,3.95 -2.88,5.09 -1.48,1.49 -2.79,2.24 -4.64,3.23 -0.58,0.31 -2.29,1.02 -2.34,1.6 -0.06,0.8 1.94,1.15 2.73,1.17 1.26,0.02 2.55,-0 3.82,-0 1.27,0 2.56,0.01 3.83,-0l0.65 -1.02c2.89,-4.77 2.68,-8.93 2.84,-9.35l0 -1.63c-0.04,-0.12 -0.06,-0.87 -0.07,-1.08 -0.08,-0.96 -0.24,-1.99 -0.46,-2.9 -0.57,-2.43 -1.41,-4.23 -2.65,-6.22 -0.42,-0.68 -0.91,-1.29 -1.4,-1.89l-1.32 -1.42 -1.47 -1.25c-2.12,-1.66 -4.81,-2.84 -7.47,-3.27 -0.3,-0.05 -1.8,-0.18 -1.9,-0.22l-1.44 0 -1.91 0.2c-1.68,0.27 -3.33,0.8 -4.82,1.56 -1.94,0.99 -2.91,1.79 -4.41,3.18 -0.32,0.29 -0.28,0.28 -0.52,0.54 -0.81,0.86 -1.24,1.42 -1.94,2.45 -0.55,0.82 -1.1,1.82 -1.55,2.83 -0.7,1.61 -1.24,3.38 -1.49,5.2 -0.04,0.3 -0.18,1.92 -0.21,2.01z"/>
   </clipPath>
 </defs>
 <g id="Camada_x0020_1">
  <metadata id="CorelCorpID_0Corel-Layer"/>
  <path class="fil0" d="M42.55 9.79c-2.44,0 -3.72,1.09 -4.36,2.71 -0.42,1.11 -0.56,2.2 -0.56,3.58 0,1.4 0.12,2.46 0.54,3.6 0.22,0.56 0.49,1.04 0.84,1.42 0.69,0.75 1.92,1.27 3.49,1.27 1.97,0 3.35,-0.73 4.03,-1.98 0.67,-1.26 0.91,-2.55 0.91,-4.31 0,-1.4 -0.12,-2.47 -0.54,-3.58 -0.22,-0.56 -0.51,-1.04 -0.86,-1.42 -0.69,-0.78 -1.89,-1.29 -3.49,-1.29zm2.48 6.29c0,1.38 -0.12,2.53 -0.67,3.31 -0.35,0.45 -0.96,0.76 -1.82,0.76 -1.3,0 -1.95,-0.62 -2.24,-1.66 -0.2,-0.75 -0.25,-1.42 -0.25,-2.42 0,-1.42 0.12,-2.56 0.67,-3.36 0.35,-0.49 0.96,-0.8 1.82,-0.8 1.06,0 1.74,0.42 2.07,1.24 0.34,0.82 0.42,1.64 0.42,2.93zm9.62 4.53c0.34,0 0.57,-0.16 0.69,-0.51l2.29 -6.64 0.34 8.15c0.02,0.36 0.19,0.55 0.52,0.55l1.31 0c0.32,0 0.49,-0.18 0.47,-0.55l-0.66 -11.06c-0.02,-0.36 -0.19,-0.55 -0.54,-0.55l-1.79 0c-0.34,0 -0.56,0.16 -0.67,0.51l-2.48 7.22 -2.49 -7.22c-0.12,-0.35 -0.35,-0.51 -0.69,-0.51l-1.79 0c-0.35,0 -0.52,0.18 -0.54,0.55l-0.66 11.06c-0.02,0.36 0.15,0.55 0.47,0.55l1.28 0c0.34,0 0.51,-0.18 0.52,-0.55l0.35 -8.17 2.29 6.66c0.12,0.35 0.34,0.51 0.67,0.51l1.08 0zm14.36 -0.02c0,-0.36 -0.17,-0.55 -0.51,-0.55l-4.77 0 0 -3.16 4.31 0c0.34,0 0.51,-0.18 0.51,-0.55l0 -0.95c0,-0.36 -0.17,-0.55 -0.51,-0.55l-4.31 0 0 -2.73 4.6 0c0.34,0 0.51,-0.18 0.51,-0.55l0 -1.02c0,-0.36 -0.17,-0.55 -0.51,-0.55l-6.59 0c-0.34,0 -0.51,0.18 -0.51,0.55l0 11.06c0,0.36 0.17,0.55 0.51,0.55l6.76 0c0.34,0 0.51,-0.18 0.51,-0.55l0 -1.02zm0.29 -4.55c0.02,4.2 1.8,6.29 5.37,6.29 1.18,0 2.22,-0.13 3.15,-0.4 0.34,-0.09 0.51,-0.33 0.51,-0.71l0 -4.49c0,-0.36 -0.17,-0.55 -0.51,-0.55l-1.25 0c-0.34,0 -0.51,0.18 -0.51,0.55l0 3.46c-0.32,0.04 -0.76,0.05 -1.28,0.05 -1.95,0 -2.93,-1.42 -2.93,-4.26 0,-2.8 1.13,-4.2 3.37,-4.2 0.56,0 1.16,0.09 1.79,0.25 0.34,0.09 0.54,-0.02 0.61,-0.36l0.19 -0.89c0.07,-0.35 -0.07,-0.58 -0.39,-0.67 -0.86,-0.22 -1.67,-0.33 -2.43,-0.33 -1.5,0 -2.76,0.4 -3.86,1.33 -1.09,0.93 -1.77,2.62 -1.84,4.93zm18.7 6.11c0.34,0 0.45,-0.16 0.34,-0.51l-3.44 -11.13c-0.12,-0.35 -0.34,-0.51 -0.67,-0.51l-1.74 0c-0.34,0 -0.56,0.16 -0.67,0.51l-3.57 11.13c-0.12,0.35 0,0.51 0.34,0.51l1.53 0c0.34,0 0.56,-0.18 0.66,-0.53l0.69 -2.35 3.71 0 0.72 2.36c0.1,0.35 0.32,0.51 0.66,0.51l1.45 0zm-5.96 -4.86l1.3 -4.78 1.26 4.78 -2.56 0z"/>
  <g style="clip-path:url(#id0)">
   <g id="_2004271709744">
    <polygon id="_1" class="fil1" points="48.29,119.42 127.49,119.42 127.49,136.17 40.55,136.17 "/>
   </g>
  </g>
  <path class="fil2" d="M42.55 9.79c-2.44,0 -3.72,1.09 -4.36,2.71 -0.42,1.11 -0.56,2.2 -0.56,3.58 0,1.4 0.12,2.46 0.54,3.6 0.22,0.56 0.49,1.04 0.84,1.42 0.69,0.75 1.92,1.27 3.49,1.27 1.97,0 3.35,-0.73 4.03,-1.98 0.67,-1.26 0.91,-2.55 0.91,-4.31 0,-1.4 -0.12,-2.47 -0.54,-3.58 -0.22,-0.56 -0.51,-1.04 -0.86,-1.42 -0.69,-0.78 -1.89,-1.29 -3.49,-1.29zm2.48 6.29c0,1.38 -0.12,2.53 -0.67,3.31 -0.35,0.45 -0.96,0.76 -1.82,0.76 -1.3,0 -1.95,-0.62 -2.24,-1.66 -0.2,-0.75 -0.25,-1.42 -0.25,-2.42 0,-1.42 0.12,-2.56 0.67,-3.36 0.35,-0.49 0.96,-0.8 1.82,-0.8 1.06,0 1.74,0.42 2.07,1.24 0.34,0.82 0.42,1.64 0.42,2.93zm9.62 4.53c0.34,0 0.57,-0.16 0.69,-0.51l2.29 -6.64 0.34 8.15c0.02,0.36 0.19,0.55 0.52,0.55l1.31 0c0.32,0 0.49,-0.18 0.47,-0.55l-0.66 -11.06c-0.02,-0.36 -0.19,-0.55 -0.54,-0.55l-1.79 0c-0.34,0 -0.56,0.16 -0.67,0.51l-2.48 7.22 -2.49 -7.22c-0.12,-0.35 -0.35,-0.51 -0.69,-0.51l-1.79 0c-0.35,0 -0.52,0.18 -0.54,0.55l-0.66 11.06c-0.02,0.36 0.15,0.55 0.47,0.55l1.28 0c0.34,0 0.51,-0.18 0.52,-0.55l0.35 -8.17 2.29 6.66c0.12,0.35 0.34,0.51 0.67,0.51l1.08 0zm14.36 -0.02c0,-0.36 -0.17,-0.55 -0.51,-0.55l-4.77 0 0 -3.16 4.31 0c0.34,0 0.51,-0.18 0.51,-0.55l0 -0.95c0,-0.36 -0.17,-0.55 -0.51,-0.55l-4.31 0 0 -2.73 4.6 0c0.34,0 0.51,-0.18 0.51,-0.55l0 -1.02c0,-0.36 -0.17,-0.55 -0.51,-0.55l-6.59 0c-0.34,0 -0.51,0.18 -0.51,0.55l0 11.06c0,0.36 0.17,0.55 0.51,0.55l6.76 0c0.34,0 0.51,-0.18 0.51,-0.55l0 -1.02zm0.29 -4.55c0.02,4.2 1.8,6.29 5.37,6.29 1.18,0 2.22,-0.13 3.15,-0.4 0.34,-0.09 0.51,-0.33 0.51,-0.71l0 -4.49c0,-0.36 -0.17,-0.55 -0.51,-0.55l-1.25 0c-0.34,0 -0.51,0.18 -0.51,0.55l0 3.46c-0.32,0.04 -0.76,0.05 -1.28,0.05 -1.95,0 -2.93,-1.42 -2.93,-4.26 0,-2.8 1.13,-4.2 3.37,-4.2 0.56,0 1.16,0.09 1.79,0.25 0.34,0.09 0.54,-0.02 0.61,-0.36l0.19 -0.89c0.07,-0.35 -0.07,-0.58 -0.39,-0.67 -0.86,-0.22 -1.67,-0.33 -2.43,-0.33 -1.5,0 -2.76,0.4 -3.86,1.33 -1.09,0.93 -1.77,2.62 -1.84,4.93zm18.7 6.11c0.34,0 0.45,-0.16 0.34,-0.51l-3.44 -11.13c-0.12,-0.35 -0.34,-0.51 -0.67,-0.51l-1.74 0c-0.34,0 -0.56,0.16 -0.67,0.51l-3.57 11.13c-0.12,0.35 0,0.51 0.34,0.51l1.53 0c0.34,0 0.56,-0.18 0.66,-0.53l0.69 -2.35 3.71 0 0.72 2.36c0.1,0.35 0.32,0.51 0.66,0.51l1.45 0zm-5.96 -4.86l1.3 -4.78 1.26 4.78 -2.56 0z"/>
  <path class="fil0" d="M45.53 32.02c-0.03,0.11 0.01,0.2 0.11,0.25 0.63,0.27 1.27,0.41 1.95,0.41 0.78,0 1.43,-0.2 1.95,-0.58 0.53,-0.4 0.79,-1 0.79,-1.82 0,-1.2 -0.72,-1.83 -2.2,-2.37 -1.16,-0.43 -1.76,-0.82 -1.76,-1.72 0,-0.93 0.57,-1.39 1.71,-1.39 0.4,0 0.88,0.07 1.47,0.21 0.13,0.04 0.19,-0.01 0.23,-0.15l0.07 -0.3c0.03,-0.12 -0.01,-0.2 -0.14,-0.24 -0.56,-0.14 -1.11,-0.21 -1.63,-0.21 -1.32,0 -2.54,0.51 -2.54,2.23 0,0.58 0.17,1.04 0.53,1.37 0.36,0.33 0.91,0.63 1.64,0.92 0.63,0.24 0.86,0.33 1.26,0.62 0.4,0.28 0.55,0.64 0.55,1.15 0,1.09 -0.74,1.52 -1.83,1.52 -0.64,0 -1.26,-0.12 -1.86,-0.36 -0.1,-0.04 -0.16,0 -0.19,0.11l-0.09 0.35zm10.03 -0.05c0,-0.12 -0.06,-0.19 -0.17,-0.19l-3.53 0 0 -3.17 3.21 0c0.11,0 0.17,-0.06 0.17,-0.19l0 -0.36c0,-0.12 -0.06,-0.19 -0.17,-0.19l-3.21 0 0 -2.91 3.4 0c0.11,0 0.17,-0.06 0.17,-0.19l0 -0.36c0,-0.12 -0.06,-0.19 -0.17,-0.19l-4.01 0c-0.11,0 -0.17,0.06 -0.17,0.19l0 7.89c0,0.12 0.06,0.19 0.17,0.19l4.14 0c0.11,0 0.17,-0.06 0.17,-0.19l0 -0.36zm5.12 0.4c0.07,0.1 0.16,0.15 0.27,0.15l0.62 0c0.11,0 0.14,-0.05 0.07,-0.15l-2.17 -3.22c1.27,-0.3 1.9,-1.12 1.9,-2.48 0,-1.26 -0.54,-1.9 -1.33,-2.17 -0.55,-0.2 -1.03,-0.25 -1.71,-0.25 -0.56,0 -1.13,0.05 -1.71,0.14 -0.11,0.02 -0.17,0.1 -0.17,0.21l0 7.73c0,0.12 0.06,0.19 0.17,0.19l0.44 0c0.11,0 0.17,-0.06 0.17,-0.19l0 -3.17c0.4,0.06 0.79,0.1 1.16,0.1l0.24 0 2.04 3.1zm-3.44 -7.36c0.42,-0.06 0.79,-0.09 1.1,-0.09 0.65,0 1.09,0.06 1.55,0.31 0.46,0.24 0.7,0.75 0.7,1.51 0,1.49 -1.09,1.87 -2.17,1.87 -0.37,0 -0.76,-0.05 -1.18,-0.13l0 -3.47zm9.89 -0.75c-0.1,0 -0.18,0.06 -0.23,0.17l-2.28 7.12 -2.25 -7.12c-0.05,-0.11 -0.13,-0.17 -0.23,-0.17l-0.54 0c-0.13,0 -0.16,0.06 -0.11,0.17l2.59 7.92c0.05,0.11 0.13,0.17 0.23,0.17l0.61 0c0.1,0 0.18,-0.06 0.23,-0.17l2.58 -7.92c0.05,-0.11 0.01,-0.17 -0.11,-0.17l-0.48 0zm1.85 0.19c0,-0.12 -0.06,-0.19 -0.17,-0.19l-0.44 0c-0.11,0 -0.17,0.06 -0.17,0.19l0 7.89c0,0.12 0.06,0.19 0.17,0.19l0.44 0c0.11,0 0.17,-0.06 0.17,-0.19l0 -7.89zm1.74 3.88c0,-1.29 0.22,-2.2 0.65,-2.73 0.44,-0.53 1.04,-0.8 1.82,-0.8 0.55,0 1.07,0.06 1.55,0.2 0.11,0.04 0.18,-0.01 0.21,-0.12l0.07 -0.32c0.02,-0.11 -0.02,-0.19 -0.13,-0.22 -0.48,-0.16 -1.05,-0.23 -1.73,-0.23 -0.88,0 -1.6,0.25 -2.26,0.85 -0.64,0.61 -1.03,1.78 -1.03,3.4 0,2.46 0.88,4.35 3.32,4.35 0.63,0 1.19,-0.06 1.66,-0.17 0.09,-0.02 0.14,-0.1 0.13,-0.22l-0.03 -0.31c-0.01,-0.12 -0.07,-0.17 -0.16,-0.16 -0.55,0.1 -1.04,0.15 -1.49,0.15 -0.86,0 -1.5,-0.27 -1.94,-0.8 -0.42,-0.53 -0.64,-1.48 -0.64,-2.84zm9.51 3.65c0,-0.12 -0.06,-0.19 -0.17,-0.19l-3.53 0 0 -3.17 3.21 0c0.11,0 0.17,-0.06 0.17,-0.19l0 -0.36c0,-0.12 -0.06,-0.19 -0.17,-0.19l-3.21 0 0 -2.91 3.4 0c0.11,0 0.17,-0.06 0.17,-0.19l0 -0.36c0,-0.12 -0.06,-0.19 -0.17,-0.19l-4.01 0c-0.11,0 -0.17,0.06 -0.17,0.19l0 7.89c0,0.12 0.06,0.19 0.17,0.19l4.14 0c0.11,0 0.17,-0.06 0.17,-0.19l0 -0.36z"/>
  <g style="clip-path:url(#id1)">
   <g id="_2004271715552">
    <polygon id="_1_0" class="fil1" points="48.29,119.42 127.49,119.42 127.49,136.17 40.55,136.17 "/>
   </g>
  </g>
  <path class="fil2" d="M45.53 32.02c-0.03,0.11 0.01,0.2 0.11,0.25 0.63,0.27 1.27,0.41 1.95,0.41 0.78,0 1.43,-0.2 1.95,-0.58 0.53,-0.4 0.79,-1 0.79,-1.82 0,-1.2 -0.72,-1.83 -2.2,-2.37 -1.16,-0.43 -1.76,-0.82 -1.76,-1.72 0,-0.93 0.57,-1.39 1.71,-1.39 0.4,0 0.88,0.07 1.47,0.21 0.13,0.04 0.19,-0.01 0.23,-0.15l0.07 -0.3c0.03,-0.12 -0.01,-0.2 -0.14,-0.24 -0.56,-0.14 -1.11,-0.21 -1.63,-0.21 -1.32,0 -2.54,0.51 -2.54,2.23 0,0.58 0.17,1.04 0.53,1.37 0.36,0.33 0.91,0.63 1.64,0.92 0.63,0.24 0.86,0.33 1.26,0.62 0.4,0.28 0.55,0.64 0.55,1.15 0,1.09 -0.74,1.52 -1.83,1.52 -0.64,0 -1.26,-0.12 -1.86,-0.36 -0.1,-0.04 -0.16,0 -0.19,0.11l-0.09 0.35zm10.03 -0.05c0,-0.12 -0.06,-0.19 -0.17,-0.19l-3.53 0 0 -3.17 3.21 0c0.11,0 0.17,-0.06 0.17,-0.19l0 -0.36c0,-0.12 -0.06,-0.19 -0.17,-0.19l-3.21 0 0 -2.91 3.4 0c0.11,0 0.17,-0.06 0.17,-0.19l0 -0.36c0,-0.12 -0.06,-0.19 -0.17,-0.19l-4.01 0c-0.11,0 -0.17,0.06 -0.17,0.19l0 7.89c0,0.12 0.06,0.19 0.17,0.19l4.14 0c0.11,0 0.17,-0.06 0.17,-0.19l0 -0.36zm5.12 0.4c0.07,0.1 0.16,0.15 0.27,0.15l0.62 0c0.11,0 0.14,-0.05 0.07,-0.15l-2.17 -3.22c1.27,-0.3 1.9,-1.12 1.9,-2.48 0,-1.26 -0.54,-1.9 -1.33,-2.17 -0.55,-0.2 -1.03,-0.25 -1.71,-0.25 -0.56,0 -1.13,0.05 -1.71,0.14 -0.11,0.02 -0.17,0.1 -0.17,0.21l0 7.73c0,0.12 0.06,0.19 0.17,0.19l0.44 0c0.11,0 0.17,-0.06 0.17,-0.19l0 -3.17c0.4,0.06 0.79,0.1 1.16,0.1l0.24 0 2.04 3.1zm-3.44 -7.36c0.42,-0.06 0.79,-0.09 1.1,-0.09 0.65,0 1.09,0.06 1.55,0.31 0.46,0.24 0.7,0.75 0.7,1.51 0,1.49 -1.09,1.87 -2.17,1.87 -0.37,0 -0.76,-0.05 -1.18,-0.13l0 -3.47zm9.89 -0.75c-0.1,0 -0.18,0.06 -0.23,0.17l-2.28 7.12 -2.25 -7.12c-0.05,-0.11 -0.13,-0.17 -0.23,-0.17l-0.54 0c-0.13,0 -0.16,0.06 -0.11,0.17l2.59 7.92c0.05,0.11 0.13,0.17 0.23,0.17l0.61 0c0.1,0 0.18,-0.06 0.23,-0.17l2.58 -7.92c0.05,-0.11 0.01,-0.17 -0.11,-0.17l-0.48 0zm1.85 0.19c0,-0.12 -0.06,-0.19 -0.17,-0.19l-0.44 0c-0.11,0 -0.17,0.06 -0.17,0.19l0 7.89c0,0.12 0.06,0.19 0.17,0.19l0.44 0c0.11,0 0.17,-0.06 0.17,-0.19l0 -7.89zm1.74 3.88c0,-1.29 0.22,-2.2 0.65,-2.73 0.44,-0.53 1.04,-0.8 1.82,-0.8 0.55,0 1.07,0.06 1.55,0.2 0.11,0.04 0.18,-0.01 0.21,-0.12l0.07 -0.32c0.02,-0.11 -0.02,-0.19 -0.13,-0.22 -0.48,-0.16 -1.05,-0.23 -1.73,-0.23 -0.88,0 -1.6,0.25 -2.26,0.85 -0.64,0.61 -1.03,1.78 -1.03,3.4 0,2.46 0.88,4.35 3.32,4.35 0.63,0 1.19,-0.06 1.66,-0.17 0.09,-0.02 0.14,-0.1 0.13,-0.22l-0.03 -0.31c-0.01,-0.12 -0.07,-0.17 -0.16,-0.16 -0.55,0.1 -1.04,0.15 -1.49,0.15 -0.86,0 -1.5,-0.27 -1.94,-0.8 -0.42,-0.53 -0.64,-1.48 -0.64,-2.84zm9.51 3.65c0,-0.12 -0.06,-0.19 -0.17,-0.19l-3.53 0 0 -3.17 3.21 0c0.11,0 0.17,-0.06 0.17,-0.19l0 -0.36c0,-0.12 -0.06,-0.19 -0.17,-0.19l-3.21 0 0 -2.91 3.4 0c0.11,0 0.17,-0.06 0.17,-0.19l0 -0.36c0,-0.12 -0.06,-0.19 -0.17,-0.19l-4.01 0c-0.11,0 -0.17,0.06 -0.17,0.19l0 7.89c0,0.12 0.06,0.19 0.17,0.19l4.14 0c0.11,0 0.17,-0.06 0.17,-0.19l0 -0.36z"/>
  <path class="fil3" d="M86.74 5.12c0.84,0 1.53,0.74 1.53,1.65 0,0.91 -0.68,1.65 -1.53,1.65 -0.84,0 -1.53,-0.74 -1.53,-1.65 0,-0.91 0.68,-1.65 1.53,-1.65zm0 0.21c0.74,0 1.34,0.65 1.34,1.44 0,0.8 -0.6,1.44 -1.34,1.44 -0.74,0 -1.34,-0.65 -1.34,-1.44 0,-0.8 0.6,-1.44 1.34,-1.44z"/>
  <g style="clip-path:url(#id2)">
   <g id="_2004271727360">
    <polygon id="_1_1" class="fil1" points="48.29,119.42 127.49,119.42 127.49,136.17 40.55,136.17 "/>
   </g>
  </g>
  <path class="fil4" d="M86.74 5.12c0.84,0 1.53,0.74 1.53,1.65 0,0.91 -0.68,1.65 -1.53,1.65 -0.84,0 -1.53,-0.74 -1.53,-1.65 0,-0.91 0.68,-1.65 1.53,-1.65zm0 0.21c0.74,0 1.34,0.65 1.34,1.44 0,0.8 -0.6,1.44 -1.34,1.44 -0.74,0 -1.34,-0.65 -1.34,-1.44 0,-0.8 0.6,-1.44 1.34,-1.44z"/>
  <path class="fil0" d="M86.09 7.55l0 -1.55 0.61 0c0.15,0 0.27,0.01 0.34,0.04 0.07,0.03 0.13,0.08 0.17,0.15 0.04,0.07 0.06,0.15 0.06,0.24 0,0.12 -0.03,0.21 -0.09,0.29 -0.06,0.08 -0.16,0.12 -0.28,0.14 0.06,0.04 0.11,0.08 0.15,0.13 0.04,0.05 0.1,0.13 0.16,0.25l0.18 0.3 -0.35 0 -0.21 -0.34c-0.07,-0.12 -0.13,-0.2 -0.15,-0.23 -0.03,-0.03 -0.06,-0.05 -0.09,-0.06 -0.03,-0.01 -0.08,-0.02 -0.15,-0.02l-0.06 0 0 0.65 -0.29 0zm0.29 -0.9l0.21 0c0.14,0 0.23,-0.01 0.26,-0.02 0.03,-0.01 0.06,-0.03 0.08,-0.07 0.02,-0.03 0.03,-0.07 0.03,-0.12 0,-0.05 -0.01,-0.09 -0.04,-0.13 -0.03,-0.03 -0.06,-0.05 -0.11,-0.06 -0.02,-0 -0.09,-0.01 -0.21,-0.01l-0.23 0 0 0.39z"/>
  <g style="clip-path:url(#id3)">
   <g id="_2004271733072">
    <polygon id="_1_2" class="fil1" points="48.29,119.42 127.49,119.42 127.49,136.17 40.55,136.17 "/>
   </g>
  </g>
  <path class="fil2" d="M86.09 7.55l0 -1.55 0.61 0c0.15,0 0.27,0.01 0.34,0.04 0.07,0.03 0.13,0.08 0.17,0.15 0.04,0.07 0.06,0.15 0.06,0.24 0,0.12 -0.03,0.21 -0.09,0.29 -0.06,0.08 -0.16,0.12 -0.28,0.14 0.06,0.04 0.11,0.08 0.15,0.13 0.04,0.05 0.1,0.13 0.16,0.25l0.18 0.3 -0.35 0 -0.21 -0.34c-0.07,-0.12 -0.13,-0.2 -0.15,-0.23 -0.03,-0.03 -0.06,-0.05 -0.09,-0.06 -0.03,-0.01 -0.08,-0.02 -0.15,-0.02l-0.06 0 0 0.65 -0.29 0zm0.29 -0.9l0.21 0c0.14,0 0.23,-0.01 0.26,-0.02 0.03,-0.01 0.06,-0.03 0.08,-0.07 0.02,-0.03 0.03,-0.07 0.03,-0.12 0,-0.05 -0.01,-0.09 -0.04,-0.13 -0.03,-0.03 -0.06,-0.05 -0.11,-0.06 -0.02,-0 -0.09,-0.01 -0.21,-0.01l-0.23 0 0 0.39z"/>
  <path class="fil3" d="M9.92 7.98c-0.27,0.22 -0.88,1.41 -1.09,1.86 -0.32,0.68 -0.58,1.44 -0.77,2.23 -0.29,1.19 0.2,0.32 -1.53,1.37 -0.51,0.31 -1.26,0.87 -1.28,1.69l11.5 1.2 -8.34 -0.45c0,1.84 0.45,3.87 1.16,5.46 0.14,0.32 0.6,1.22 0.79,1.41 0.08,0.21 0.47,0.69 0.62,0.89 0.27,0.36 0.42,0.51 0.71,0.82l1.1 1.15c0.58,0.55 1.33,1.32 1.73,2.07 0.33,0.64 0.65,1.67 0.34,2.51 -0.49,1.31 -2.36,1.84 -4.02,1.94 -1.63,0.1 -4.04,-0.04 -5.84,0.01 0.27,0.42 1.84,1.79 2.24,2.09 2.67,2.05 5.67,3.28 8.97,3.53l0.27 0.05 1.93 0c0.12,-0.05 1.58,-0.18 1.89,-0.24 0.6,-0.1 1.18,-0.23 1.73,-0.4 1.08,-0.32 2.14,-0.73 3.07,-1.22 1.45,-0.77 3.24,-2.01 4.36,-3.23 0.18,-0.2 0.39,-0.36 0.54,-0.58 -0.62,-0.04 -1.36,-0.01 -1.99,-0.01 -1.69,0 -4.24,0.12 -5.7,-0.32 -1.01,-0.3 -2.01,-0.84 -2.24,-1.89 -0.13,-0.59 0.02,-1.33 0.22,-1.82 0.25,-0.6 0.49,-0.89 0.81,-1.32 0.37,-0.49 1.98,-2.01 2.51,-2.65 1.22,-1.47 2.02,-2.8 2.53,-4.87 0.44,-1.75 0.43,-3.63 0.48,-3.83l3.13 -0.32c-0,-0.76 -0.68,-1.29 -1.1,-1.58 -0.39,-0.26 -0.86,-0.5 -1.3,-0.68 -0.29,-0.12 -0.25,-0.04 -0.31,-0.38 -0.43,-2.25 -1.74,-4.71 -3.31,-6.14 -0.17,-0.16 -0.11,-0.22 -0.17,-0.5 -0.04,-0.21 -0.09,-0.34 -0.17,-0.54 -0.28,-0.62 -0.87,-1.06 -1.66,-0.6 -0.24,0.14 -0.36,-0.06 -0.9,-0.27 -0.32,-0.13 -0.68,-0.28 -1.02,-0.34 -0.1,-0.08 -0.61,-0.15 -0.8,-0.19 -0.23,-0.04 -0.16,-0.05 -0.27,-0.24 -0.5,-0.85 -1.45,-1.26 -2.3,-0.28 -0.4,0.46 -0.14,0.45 -0.53,0.52 -0.79,0.14 -1.64,0.43 -2.35,0.8 -0.32,0.16 -0.2,-0.06 -0.71,-0.17 -0.68,-0.14 -1.07,0.35 -1.28,0.82 -0.18,0.41 -0.17,0.76 -0.21,0.86 -0.03,0.07 -0.43,0.44 -0.52,0.54 -0.21,0.23 -0.86,0.94 -0.95,1.2zm-9.92 9.99l0 1.91c0.08,0.2 0.11,1.25 0.16,1.58 0.07,0.51 0.15,1.03 0.25,1.51 0.2,0.96 0.45,1.87 0.76,2.73 0.29,0.81 0.66,1.7 1.04,2.4l0.95 1.63c0.11,0.18 0.25,0.36 0.34,0.52 1.24,0.04 2.54,0 3.79,0 1.27,-0 2.55,0.02 3.82,0 0.8,-0.01 2.77,-0.36 2.76,-1.14 -0,-0.62 -1.75,-1.32 -2.32,-1.62 -3.5,-1.83 -6.37,-4 -7.54,-8.34 -2.52,-9.36 4.51,-17.26 13.5,-17.26 8.48,0 16.12,7.4 13.5,17.26 -0.58,2.19 -1.74,3.95 -2.88,5.09 -1.48,1.49 -2.79,2.24 -4.64,3.23 -0.58,0.31 -2.29,1.02 -2.34,1.6 -0.06,0.8 1.94,1.15 2.73,1.17 1.26,0.02 2.55,-0 3.82,-0 1.27,0 2.56,0.01 3.83,-0l0.65 -1.02c2.89,-4.77 2.68,-8.93 2.84,-9.35l0 -1.63c-0.04,-0.12 -0.06,-0.87 -0.07,-1.08 -0.08,-0.96 -0.24,-1.99 -0.46,-2.9 -0.57,-2.43 -1.41,-4.23 -2.65,-6.22 -0.42,-0.68 -0.91,-1.29 -1.4,-1.89l-1.32 -1.42 -1.47 -1.25c-2.12,-1.66 -4.81,-2.84 -7.47,-3.27 -0.3,-0.05 -1.8,-0.18 -1.9,-0.22l-1.44 0 -1.91 0.2c-1.68,0.27 -3.33,0.8 -4.82,1.56 -1.94,0.99 -2.91,1.79 -4.41,3.18 -0.32,0.29 -0.28,0.28 -0.52,0.54 -0.81,0.86 -1.24,1.42 -1.94,2.45 -0.55,0.82 -1.1,1.82 -1.55,2.83 -0.7,1.61 -1.24,3.38 -1.49,5.2 -0.04,0.3 -0.18,1.92 -0.21,2.01z"/>
  <g style="clip-path:url(#id4)">
   <g id="_2004271733120">
    <polygon id="_1_3" class="fil1" points="50.28,122.45 129.49,122.45 129.49,139.2 42.54,139.2 "/>
   </g>
  </g>
  <path class="fil4" d="M9.92 7.98c-0.27,0.22 -0.88,1.41 -1.09,1.86 -0.32,0.68 -0.58,1.44 -0.77,2.23 -0.29,1.19 0.2,0.32 -1.53,1.37 -0.51,0.31 -1.26,0.87 -1.28,1.69l11.5 1.2 -8.34 -0.45c0,1.84 0.45,3.87 1.16,5.46 0.14,0.32 0.6,1.22 0.79,1.41 0.08,0.21 0.47,0.69 0.62,0.89 0.27,0.36 0.42,0.51 0.71,0.82l1.1 1.15c0.58,0.55 1.33,1.32 1.73,2.07 0.33,0.64 0.65,1.67 0.34,2.51 -0.49,1.31 -2.36,1.84 -4.02,1.94 -1.63,0.1 -4.04,-0.04 -5.84,0.01 0.27,0.42 1.84,1.79 2.24,2.09 2.67,2.05 5.67,3.28 8.97,3.53l0.27 0.05 1.93 0c0.12,-0.05 1.58,-0.18 1.89,-0.24 0.6,-0.1 1.18,-0.23 1.73,-0.4 1.08,-0.32 2.14,-0.73 3.07,-1.22 1.45,-0.77 3.24,-2.01 4.36,-3.23 0.18,-0.2 0.39,-0.36 0.54,-0.58 -0.62,-0.04 -1.36,-0.01 -1.99,-0.01 -1.69,0 -4.24,0.12 -5.7,-0.32 -1.01,-0.3 -2.01,-0.84 -2.24,-1.89 -0.13,-0.59 0.02,-1.33 0.22,-1.82 0.25,-0.6 0.49,-0.89 0.81,-1.32 0.37,-0.49 1.98,-2.01 2.51,-2.65 1.22,-1.47 2.02,-2.8 2.53,-4.87 0.44,-1.75 0.43,-3.63 0.48,-3.83l3.13 -0.32c-0,-0.76 -0.68,-1.29 -1.1,-1.58 -0.39,-0.26 -0.86,-0.5 -1.3,-0.68 -0.29,-0.12 -0.25,-0.04 -0.31,-0.38 -0.43,-2.25 -1.74,-4.71 -3.31,-6.14 -0.17,-0.16 -0.11,-0.22 -0.17,-0.5 -0.04,-0.21 -0.09,-0.34 -0.17,-0.54 -0.28,-0.62 -0.87,-1.06 -1.66,-0.6 -0.24,0.14 -0.36,-0.06 -0.9,-0.27 -0.32,-0.13 -0.68,-0.28 -1.02,-0.34 -0.1,-0.08 -0.61,-0.15 -0.8,-0.19 -0.23,-0.04 -0.16,-0.05 -0.27,-0.24 -0.5,-0.85 -1.45,-1.26 -2.3,-0.28 -0.4,0.46 -0.14,0.45 -0.53,0.52 -0.79,0.14 -1.64,0.43 -2.35,0.8 -0.32,0.16 -0.2,-0.06 -0.71,-0.17 -0.68,-0.14 -1.07,0.35 -1.28,0.82 -0.18,0.41 -0.17,0.76 -0.21,0.86 -0.03,0.07 -0.43,0.44 -0.52,0.54 -0.21,0.23 -0.86,0.94 -0.95,1.2zm-9.92 9.99l0 1.91c0.08,0.2 0.11,1.25 0.16,1.58 0.07,0.51 0.15,1.03 0.25,1.51 0.2,0.96 0.45,1.87 0.76,2.73 0.29,0.81 0.66,1.7 1.04,2.4l0.95 1.63c0.11,0.18 0.25,0.36 0.34,0.52 1.24,0.04 2.54,0 3.79,0 1.27,-0 2.55,0.02 3.82,0 0.8,-0.01 2.77,-0.36 2.76,-1.14 -0,-0.62 -1.75,-1.32 -2.32,-1.62 -3.5,-1.83 -6.37,-4 -7.54,-8.34 -2.52,-9.36 4.51,-17.26 13.5,-17.26 8.48,0 16.12,7.4 13.5,17.26 -0.58,2.19 -1.74,3.95 -2.88,5.09 -1.48,1.49 -2.79,2.24 -4.64,3.23 -0.58,0.31 -2.29,1.02 -2.34,1.6 -0.06,0.8 1.94,1.15 2.73,1.17 1.26,0.02 2.55,-0 3.82,-0 1.27,0 2.56,0.01 3.83,-0l0.65 -1.02c2.89,-4.77 2.68,-8.93 2.84,-9.35l0 -1.63c-0.04,-0.12 -0.06,-0.87 -0.07,-1.08 -0.08,-0.96 -0.24,-1.99 -0.46,-2.9 -0.57,-2.43 -1.41,-4.23 -2.65,-6.22 -0.42,-0.68 -0.91,-1.29 -1.4,-1.89l-1.32 -1.42 -1.47 -1.25c-2.12,-1.66 -4.81,-2.84 -7.47,-3.27 -0.3,-0.05 -1.8,-0.18 -1.9,-0.22l-1.44 0 -1.91 0.2c-1.68,0.27 -3.33,0.8 -4.82,1.56 -1.94,0.99 -2.91,1.79 -4.41,3.18 -0.32,0.29 -0.28,0.28 -0.52,0.54 -0.81,0.86 -1.24,1.42 -1.94,2.45 -0.55,0.82 -1.1,1.82 -1.55,2.83 -0.7,1.61 -1.24,3.38 -1.49,5.2 -0.04,0.3 -0.18,1.92 -0.21,2.01z"/>
 </g>
</svg>
