<?xml version="1.0" encoding="UTF-8"?>
<!DOCTYPE svg PUBLIC "-//W3C//DTD SVG 1.1//EN" "http://www.w3.org/Graphics/SVG/1.1/DTD/svg11.dtd">
<!-- Creator: CorelDRAW -->
<svg xmlns="http://www.w3.org/2000/svg" xml:space="preserve" width="258.079mm" height="75.4352mm" version="1.1" style="shape-rendering:geometricPrecision; text-rendering:geometricPrecision; image-rendering:optimizeQuality; fill-rule:evenodd; clip-rule:evenodd"
viewBox="0 0 2217.8 648.25"
 xmlns:xlink="http://www.w3.org/1999/xlink"
 xmlns:xodm="http://www.corel.com/coreldraw/odm/2003">
 <defs>
  <style type="text/css">
   <![CDATA[
    .fil0 {fill:#053774}
    .fil2 {fill:#FEFEFE;fill-rule:nonzero}
    .fil3 {fill:#373435;fill-rule:nonzero}
    .fil4 {fill:#00AFEF;fill-rule:nonzero}
    .fil1 {fill:#053774;fill-rule:nonzero}
   ]]>
  </style>
 </defs>
 <g id="Camada_x0020_1">
  <metadata id="CorelCorpID_0Corel-Layer"/>
  <path class="fil0" d="M126.71 409.83l1977.22 0c59.93,0 108.96,53.64 108.96,119.21l0 0c0,65.56 -49.03,119.21 -108.96,119.21l-1977.22 0c-59.93,0 -108.96,-53.64 -108.96,-119.21l0 -0c0,-65.56 49.03,-119.21 108.96,-119.21z"/>
  <path class="fil1" d="M771.76 166.6l73.39 -4.47c-1.57,11.53 -0.74,20.35 2.45,26.35 5.21,9.78 15.05,14.7 29.6,14.7 10.83,0 19.86,-2.49 27.06,-7.52 7.26,-5.03 11.75,-10.85 13.54,-17.47 1.69,-6.28 0.47,-11.93 -3.74,-16.9 -4.21,-4.97 -15.91,-9.61 -35.04,-14.08 -31.35,-7.35 -52.41,-17.19 -63.31,-29.45 -11.02,-12.21 -13.97,-27.81 -8.84,-46.81 3.36,-12.44 10.2,-24.19 20.53,-35.28 10.34,-11.14 23.69,-19.84 40.12,-26.17 16.43,-6.33 37.45,-9.5 63.06,-9.5 31.45,0 53.84,5.77 67.2,17.36 13.38,11.53 18.22,29.91 14.56,55.12l-72.62 4.18c1.09,-11.02 -0.76,-19.05 -5.48,-24.03 -4.77,-5.03 -12.52,-7.52 -23.23,-7.52 -8.82,0 -16.03,1.86 -21.49,5.54 -5.46,3.67 -8.92,8.2 -10.35,13.51 -1.04,3.84 -0.14,7.29 2.63,10.4 2.63,3.22 10.31,6.16 22.97,8.93 31.32,7.07 53.15,14.25 65.52,21.48 12.42,7.24 20.49,16.17 24.12,26.91 3.65,10.69 3.67,22.67 0.09,35.96 -4.2,15.55 -12.43,29.91 -24.7,43.08 -12.31,13.12 -27.15,23.12 -44.68,29.91 -17.47,6.78 -38.09,10.18 -61.92,10.18 -41.82,0 -68.65,-7.97 -80.46,-23.86 -11.81,-15.89 -15.47,-36.07 -10.97,-60.55zm265.05 -162.53l203.48 0 -14.02 51.9 -127.17 0 -10.44 38.67 117.89 0 -13.37 49.52 -117.89 0 -12.92 47.83 130.95 0 -14.84 54.95 -207.26 0 65.59 -242.86zm143.54 242.86l65.59 -242.86 126.71 0c23.49,0 40.94,1.98 52.23,5.99 11.36,3.96 19.39,11.36 24.11,22.1 4.7,10.8 4.93,23.97 0.74,39.46 -3.63,13.45 -9.7,25.1 -18.18,34.88 -8.44,9.84 -18.6,17.75 -30.5,23.86 -7.51,3.84 -17.32,7.07 -29.29,9.61 8.24,3 14.04,5.94 17.35,8.93 2.22,1.98 5.12,6.27 8.69,12.78 3.51,6.5 5.71,11.53 6.52,15.09l18 70.16 -85.93 0 -20.61 -74.06c-2.56,-9.61 -5.46,-15.83 -8.69,-18.71 -4.49,-3.73 -10.23,-5.6 -17.16,-5.6l-6.7 0 -26.57 98.37 -76.3 0zm115.24 -144.16l32.14 0c3.44,0 10.5,-1.13 21.06,-3.34 5.3,-0.96 10.11,-3.51 14.38,-7.63 4.32,-4.13 7.19,-8.82 8.63,-14.13 2.12,-7.86 1.23,-13.91 -2.68,-18.09 -3.9,-4.24 -12.78,-6.33 -26.7,-6.33l-33.46 0 -13.37 49.52zm146.59 -98.71l79.45 0 8.24 174.8 101.86 -174.8 77.16 0 -156.96 242.86 -82.38 0 -27.38 -242.86zm254.38 0l76.3 0 -65.59 242.86 -76.3 0 65.59 -242.86zm215.75 143.48l61.32 19.84c-9.45,18.43 -20.66,33.86 -33.67,46.19 -12.97,12.38 -27.4,21.71 -43.42,27.98 -15.96,6.27 -34.97,9.44 -57.03,9.44 -26.81,0 -47.6,-3.84 -62.55,-11.48 -14.88,-7.69 -25.84,-21.2 -32.95,-40.48 -7.11,-19.28 -6.61,-44.04 1.51,-74.11 10.84,-40.14 30,-71.01 57.49,-92.6 27.53,-21.54 61.09,-32.34 100.73,-32.34 30.99,0 53.73,6.16 68.14,18.54 14.36,12.38 22.46,31.38 24.12,57.04l-70.98 14.64c-0.36,-7.35 -1.38,-12.72 -3.04,-16.11 -2.75,-5.71 -6.78,-10.12 -12.08,-13.17 -5.35,-3.11 -11.81,-4.64 -19.43,-4.64 -17.3,0 -32.38,6.84 -45.22,20.46 -9.66,10.12 -17.46,26.06 -23.31,47.71 -7.27,26.91 -8.11,45.28 -2.5,55.29 5.62,9.95 15.9,14.92 30.91,14.92 14.55,0 26.63,-4.01 36.26,-12.1 9.61,-8.03 18.16,-19.73 25.68,-35.05zm102.03 -143.48l203.48 0 -14.02 51.9 -127.17 0 -10.44 38.67 117.89 0 -13.37 49.52 -117.89 0 -12.92 47.83 130.95 0 -14.84 54.95 -207.26 0 65.59 -242.86z"/>
  <path class="fil1" d="M17.31 7.36l246.97 0 -17.31 60.04 -82.94 0 -52.72 182.83 -81.1 0 52.72 -182.83 -82.94 0 17.31 -60.04zm182.65 121.6c11.43,-39.63 32.25,-70.5 62.53,-92.54 30.29,-22.1 66.74,-33.13 109.43,-33.13 43.73,0 74.3,10.85 91.73,32.51 17.41,21.71 20.44,52.12 9.18,91.19 -8.18,28.38 -20.02,51.61 -35.59,69.76 -15.57,18.15 -34.63,32.28 -57.06,42.4 -22.49,10.12 -48.28,15.15 -77.46,15.15 -29.6,0 -52.87,-4.35 -69.81,-13.06 -16.86,-8.76 -28.66,-22.56 -35.27,-41.44 -6.62,-18.83 -5.86,-42.46 2.32,-70.84zm81.05 0.17c-7.06,24.48 -7.19,42.12 -0.42,52.8 6.83,10.68 18.74,16.05 35.74,16.05 17.43,0 32.52,-5.26 45.08,-15.72 12.64,-10.52 22.82,-29.28 30.66,-56.48 6.59,-22.84 6.38,-39.52 -0.56,-50.03 -6.98,-10.57 -18.98,-15.83 -36.11,-15.83 -16.39,0 -31.15,5.37 -44.14,16.05 -13.05,10.69 -23.12,28.44 -30.25,53.14zm226.77 -121.77l135.04 0c29.42,0 49.58,6.45 60.52,19.39 10.89,12.95 12.91,31.38 6.02,55.29 -7.07,24.54 -20.63,43.76 -40.57,57.55 -19.96,13.85 -46.35,20.75 -79.13,20.75l-44.53 0 -25.92 89.89 -81.47 0 70.03 -242.86zm51.54 103.79l20 0c15.78,0 27.58,-2.54 35.39,-7.58 7.81,-5.03 12.85,-11.48 15.12,-19.33 2.2,-7.63 1.31,-14.08 -2.73,-19.39 -3.97,-5.31 -13.6,-7.97 -28.89,-7.97l-23.24 0 -15.65 54.27z"/>
  <path class="fil2" d="M170.38 533.36l39.04 -2.62c-1.28,6.77 -1.19,11.95 0.26,15.47 2.37,5.74 7.39,8.63 15.1,8.63 5.73,0 10.62,-1.46 14.63,-4.41 4.04,-2.95 6.65,-6.37 7.86,-10.25 1.15,-3.68 0.72,-7 -1.31,-9.92 -2.04,-2.92 -8.05,-5.64 -18,-8.26 -16.31,-4.31 -27.08,-10.09 -32.36,-17.29 -5.36,-7.17 -6.3,-16.33 -2.83,-27.48 2.27,-7.3 6.36,-14.2 12.26,-20.71 5.92,-6.54 13.33,-11.65 22.28,-15.37 8.95,-3.72 20.21,-5.58 33.77,-5.58 16.65,0 28.28,3.39 34.9,10.19 6.63,6.77 8.47,17.56 5.53,32.36l-38.62 2.46c1.01,-6.47 0.35,-11.18 -1.96,-14.1 -2.33,-2.95 -6.33,-4.41 -12.01,-4.41 -4.67,0 -8.56,1.09 -11.6,3.25 -3.04,2.16 -5.04,4.81 -6.01,7.93 -0.7,2.26 -0.36,4.28 0.98,6.11 1.26,1.89 5.22,3.62 11.81,5.24 16.3,4.15 27.58,8.36 33.85,12.61 6.29,4.25 10.22,9.49 11.71,15.8 1.51,6.27 1.05,13.31 -1.37,21.11 -2.84,9.13 -7.76,17.56 -14.77,25.29 -7.04,7.7 -15.29,13.57 -24.84,17.56 -9.52,3.98 -20.57,5.97 -33.19,5.97 -22.14,0 -36.04,-4.68 -41.66,-14.01 -5.63,-9.32 -6.77,-21.17 -3.42,-35.54zm123.83 -4.22c4.91,-15.8 13.81,-28.81 26.69,-39.03 12.88,-10.22 27.58,-15.33 44.08,-15.33 18.9,0 31.29,6.01 37.2,18.02 4.72,9.69 4.9,21.6 0.51,35.74 -4.95,15.93 -13.79,28.94 -26.57,39.13 -12.77,10.16 -27.67,15.23 -44.65,15.23 -15.14,0 -26.08,-4.22 -32.8,-12.68 -8.25,-10.45 -9.72,-24.16 -4.46,-41.09zm36.24 -0.07c-2.88,9.26 -3.3,16.1 -1.28,20.51 2.02,4.41 5.58,6.64 10.74,6.64 5.19,0 10.12,-2.19 14.8,-6.54 4.69,-4.35 8.53,-11.35 11.52,-20.97 2.8,-8.99 3.2,-15.67 1.2,-20.08 -2.01,-4.38 -5.48,-6.57 -10.46,-6.57 -5.25,0 -10.28,2.22 -15.09,6.67 -4.82,4.48 -8.62,11.25 -11.45,20.34zm110.04 -91.13l36.22 0 -44.31 142.57 -36.22 0 44.31 -142.57zm105.29 142.57l-33.82 0 5.18 -16.66c-7.17,6.87 -13.75,11.75 -19.76,14.67 -6.04,2.92 -12.77,4.38 -20.23,4.38 -9.95,0 -16.7,-3.25 -20.35,-9.79 -3.62,-6.51 -3.32,-16.56 0.9,-30.13l20.45 -65.81 36.4 0 -17.7 56.95c-2.01,6.47 -2.35,11.08 -1.03,13.84 1.34,2.72 3.98,4.08 7.92,4.08 4.28,0 8.36,-1.83 12.25,-5.44 3.87,-3.65 7.26,-10.19 10.19,-19.61l15.48 -49.81 36.22 0 -32.12 103.35zm95.92 -40.42l33.1 4.18c-4.36,7.86 -9.56,14.67 -15.7,20.44 -6.09,5.74 -13.03,10.22 -20.76,13.41 -7.69,3.19 -16.74,4.78 -27.12,4.78 -10.04,0 -18.06,-1.03 -24.11,-3.05 -6,-2.06 -10.71,-5.38 -14.11,-9.96 -3.38,-4.55 -5.47,-9.92 -6.28,-16.1 -0.81,-6.17 0.36,-14.34 3.53,-24.53 3.3,-10.62 7.72,-19.48 13.23,-26.55 4.05,-5.21 8.83,-9.86 14.32,-13.97 5.49,-4.11 10.76,-7.2 15.84,-9.19 8.06,-3.19 17.59,-4.78 28.61,-4.78 15.44,0 26.24,3.02 32.47,9.03 6.22,6.04 9.16,14.83 8.84,26.42l-35.58 4.98c0.31,-4.41 -0.6,-7.73 -2.72,-9.99 -2.13,-2.22 -5.57,-3.35 -10.33,-3.35 -5.98,0 -11.56,2.36 -16.75,7.04 -5.17,4.71 -9.22,11.81 -12.19,21.37 -2.64,8.5 -2.79,14.93 -0.49,19.35 2.3,4.41 6.29,6.6 11.99,6.6 4.73,0 9.15,-1.33 13.18,-3.95 4.07,-2.65 7.73,-6.7 11.03,-12.18zm-58.55 56.62l6.26 -11.55c6.05,-1.49 11.5,-2.26 16.38,-2.26 10.13,0 16.55,1.89 19.24,5.64 2.68,3.78 3.24,8.23 1.65,13.34 -0.97,3.12 -2.85,6.34 -5.63,9.62 -2.76,3.32 -6.74,5.97 -11.86,8 -5.15,2.02 -11.46,3.02 -18.93,3.02 -6.76,0 -14.48,-0.83 -23.09,-2.52l3.71 -11.95c5.79,1.29 12.14,1.92 19.09,1.92 5.1,0 8.78,-0.73 11.04,-2.22 2.28,-1.49 3.79,-3.42 4.55,-5.84 0.58,-1.86 0.36,-3.48 -0.71,-4.85 -1.06,-1.36 -3.16,-2.02 -6.32,-2.02 -4.22,0 -9.34,0.56 -15.38,1.66zm99.44 -67.57c4.91,-15.8 13.81,-28.81 26.69,-39.03 12.88,-10.22 27.58,-15.33 44.08,-15.33 18.9,0 31.29,6.01 37.2,18.02 4.72,9.69 4.9,21.6 0.51,35.74 -4.95,15.93 -13.79,28.94 -26.57,39.13 -12.77,10.16 -27.67,15.23 -44.65,15.23 -15.14,0 -26.08,-4.22 -32.8,-12.68 -8.25,-10.45 -9.72,-24.16 -4.46,-41.09zm36.24 -0.07c-2.88,9.26 -3.3,16.1 -1.28,20.51 2.02,4.41 5.58,6.64 10.74,6.64 5.19,0 10.12,-2.19 14.8,-6.54 4.69,-4.35 8.53,-11.35 11.52,-20.97 2.8,-8.99 3.2,-15.67 1.2,-20.08 -2.01,-4.38 -5.48,-6.57 -10.46,-6.57 -5.25,0 -10.28,2.22 -15.09,6.67 -4.82,4.48 -8.62,11.25 -11.45,20.34zm64.18 -91.13l14.01 0c-0.46,1.69 -0.89,3.15 -1.27,4.38 -2.24,7.2 -5.65,12.81 -10.18,16.76 -4.53,3.95 -9.43,5.94 -14.62,5.94 -3.79,0 -9,-1.69 -15.65,-5.08 -4.03,-2.06 -6.93,-3.09 -8.72,-3.09 -1.7,0 -3.22,0.6 -4.52,1.76 -1.3,1.16 -2.46,3.22 -3.45,6.21l-13.83 0c0.42,-1.56 0.82,-2.92 1.19,-4.12 2.17,-6.97 5.65,-12.51 10.4,-16.59 4.77,-4.11 9.53,-6.17 14.33,-6.17 2.06,0 3.95,0.27 5.62,0.76 1.69,0.53 4.62,1.92 8.86,4.18 4.23,2.29 7.49,3.42 9.74,3.42 1.58,0 3.07,-0.6 4.41,-1.79 1.34,-1.2 2.57,-3.39 3.68,-6.57zm118.11 100.76l-72.62 0c-1.3,6.34 -1.23,11.08 0.32,14.2 2.1,4.48 5.99,6.7 11.63,6.7 3.58,0 7.28,-0.96 11.06,-2.89 2.35,-1.23 5.15,-3.38 8.35,-6.47l34.56 3.58c-8.68,10.35 -17.58,17.82 -26.68,22.3 -9.11,4.51 -20.88,6.77 -35.29,6.77 -12.53,0 -21.76,-1.92 -27.74,-5.81 -5.96,-3.85 -10,-9.99 -12.12,-18.39 -2.08,-8.43 -1.37,-18.32 2.15,-29.67 5.02,-16.16 13.83,-29.27 26.4,-39.26 12.54,-9.99 27.17,-15 43.82,-15 13.53,0 23.48,2.26 29.91,6.74 6.43,4.48 10.4,10.95 11.84,19.48 1.45,8.5 0.04,19.58 -4.2,33.22l-1.39 4.48zm-30.89 -18.92c1.7,-7.7 1.5,-13.21 -0.54,-16.53 -2.03,-3.32 -5.52,-4.98 -10.53,-4.98 -5.76,0 -11.16,2.52 -16.17,7.53 -3.15,3.12 -5.99,7.77 -8.53,13.97l35.77 0zm27.89 32.06l36.97 -3.58c0.04,4.65 1.07,7.97 3.12,9.96 2.05,1.99 5.29,2.99 9.75,2.99 4.85,0 8.97,-1.13 12.35,-3.42 2.61,-1.66 4.3,-3.78 5.08,-6.31 0.89,-2.85 0.21,-5.08 -2.03,-6.64 -1.6,-1.09 -6.37,-2.46 -14.26,-4.08 -11.82,-2.39 -19.83,-4.61 -24.11,-6.67 -4.25,-2.03 -7.27,-5.51 -9.13,-10.35 -1.82,-4.88 -1.77,-10.42 0.17,-16.66 2.11,-6.8 5.73,-12.68 10.87,-17.59 5.15,-4.94 11.27,-8.63 18.36,-11.05 7.09,-2.42 15.97,-3.65 26.62,-3.65 11.22,0 19.25,0.93 24,2.82 4.78,1.89 8.33,4.81 10.68,8.76 2.34,3.98 3.65,9.33 3.92,16.1l-35.33 3.59c0.14,-3.29 -0.59,-5.71 -2.17,-7.27 -2.18,-2.06 -5.29,-3.09 -9.32,-3.09 -4.06,0 -7.28,0.8 -9.63,2.39 -2.35,1.59 -3.88,3.52 -4.59,5.77 -0.79,2.56 -0.2,4.45 1.73,5.74 1.92,1.33 6.72,2.49 14.32,3.52 11.58,1.49 19.85,3.58 24.91,6.24 5.03,2.66 8.34,6.44 9.9,11.38 1.59,4.94 1.45,10.35 -0.38,16.26 -1.86,5.97 -5.3,11.78 -10.36,17.42 -5.03,5.64 -11.61,10.12 -19.72,13.47 -8.11,3.35 -18.27,5.01 -30.47,5.01 -17.23,0 -28.68,-2.69 -34.31,-8.1 -5.64,-5.38 -7.96,-13.04 -6.94,-22.97zm277.86 -40.62l26.07 6.9c-3.27,5.74 -6.12,10.32 -8.53,13.77 -2.43,3.42 -5.64,7.5 -9.55,12.18l10.38 10.22c1.31,1.16 3,2.55 5.1,4.18l-27.04 24.43c-2.91,-2.06 -5.87,-4.45 -8.81,-7.17 -2.98,-2.72 -5.68,-5.04 -8.09,-6.97 -7.68,4.51 -14.98,7.8 -21.91,9.89 -9.55,2.82 -19.89,4.25 -30.96,4.25 -17.35,0 -29.02,-3.95 -35.01,-11.88 -6.01,-7.9 -7.27,-17.49 -3.77,-28.77 2.53,-8.13 7.4,-15.8 14.62,-23.03 7.21,-7.2 17.25,-13.34 30.11,-18.32 -2.77,-6.31 -4.33,-11.75 -4.64,-16.39 -0.36,-4.61 0.24,-9.36 1.72,-14.14 3.15,-10.12 9.25,-18.45 18.32,-24.99 9.1,-6.54 20.8,-9.82 35.15,-9.82 14.62,0 24.39,3.12 29.32,9.33 4.95,6.24 6.06,13.67 3.36,22.37 -1.52,4.88 -4.02,9.52 -7.51,14 -3.52,4.48 -7.16,8.1 -11,10.89 -3.84,2.79 -10.44,6.94 -19.82,12.45 4.17,6.97 8.78,13.44 13.8,19.42 3.08,-4.05 5.98,-8.3 8.67,-12.78zm-33.78 -25.02c5.55,-2.82 10.07,-5.84 13.64,-9.13 3.57,-3.29 5.8,-6.37 6.71,-9.29 0.95,-3.05 0.69,-5.64 -0.77,-7.77 -1.47,-2.09 -4.09,-3.15 -7.82,-3.15 -3.67,0 -7,1.16 -10.04,3.52 -3.03,2.32 -5.04,5.08 -6.03,8.26 -1.26,4.05 0.17,9.89 4.31,17.56zm-23.64 34.68c-6.19,3.82 -10.52,7.1 -12.97,9.82 -2.49,2.76 -4.21,5.64 -5.16,8.7 -1.47,4.75 -0.93,8.96 1.64,12.68 2.59,3.68 6.86,5.54 12.84,5.54 6.46,0 14.57,-2.75 24.33,-8.3 -5.66,-6.47 -12.57,-15.96 -20.68,-28.44zm145.12 12.48l39.04 -2.62c-1.28,6.77 -1.2,11.95 0.26,15.47 2.37,5.74 7.39,8.63 15.1,8.63 5.73,0 10.62,-1.46 14.63,-4.41 4.04,-2.95 6.65,-6.37 7.86,-10.25 1.15,-3.68 0.72,-7 -1.31,-9.92 -2.03,-2.92 -8.04,-5.64 -18,-8.26 -16.31,-4.31 -27.08,-10.09 -32.36,-17.29 -5.36,-7.17 -6.3,-16.33 -2.83,-27.48 2.27,-7.3 6.36,-14.2 12.26,-20.71 5.92,-6.54 13.33,-11.65 22.28,-15.37 8.95,-3.72 20.21,-5.58 33.77,-5.58 16.65,0 28.28,3.39 34.9,10.19 6.63,6.77 8.47,17.56 5.54,32.36l-38.62 2.46c1.01,-6.47 0.35,-11.18 -1.96,-14.1 -2.33,-2.95 -6.33,-4.41 -12.01,-4.41 -4.67,0 -8.56,1.09 -11.6,3.25 -3.04,2.16 -5.04,4.81 -6.01,7.93 -0.7,2.26 -0.36,4.28 0.98,6.11 1.26,1.89 5.22,3.62 11.81,5.24 16.3,4.15 27.58,8.36 33.85,12.61 6.29,4.25 10.22,9.49 11.71,15.8 1.51,6.27 1.05,13.31 -1.37,21.11 -2.84,9.13 -7.76,17.56 -14.78,25.29 -7.03,7.7 -15.29,13.57 -24.84,17.56 -9.52,3.98 -20.57,5.97 -33.19,5.97 -22.14,0 -36.04,-4.68 -41.66,-14.01 -5.63,-9.32 -6.77,-21.17 -3.42,-35.54zm230.06 5.34l-72.62 0c-1.3,6.34 -1.23,11.08 0.32,14.2 2.1,4.48 5.99,6.7 11.63,6.7 3.58,0 7.28,-0.96 11.06,-2.89 2.35,-1.23 5.15,-3.38 8.35,-6.47l34.56 3.58c-8.68,10.35 -17.58,17.82 -26.68,22.3 -9.11,4.51 -20.88,6.77 -35.29,6.77 -12.53,0 -21.76,-1.92 -27.74,-5.81 -5.96,-3.85 -10,-9.99 -12.12,-18.39 -2.08,-8.43 -1.37,-18.32 2.15,-29.67 5.02,-16.16 13.83,-29.27 26.4,-39.26 12.54,-9.99 27.17,-15 43.82,-15 13.53,0 23.48,2.26 29.91,6.74 6.43,4.48 10.4,10.95 11.84,19.48 1.45,8.5 0.04,19.58 -4.2,33.22l-1.39 4.48zm-30.89 -18.92c1.7,-7.7 1.5,-13.21 -0.54,-16.53 -2.03,-3.32 -5.52,-4.98 -10.53,-4.98 -5.76,0 -11.16,2.52 -16.17,7.53 -3.15,3.12 -5.99,7.77 -8.53,13.97l35.77 0zm57.83 -42.61l33.91 0 -5.24 16.86c5.56,-7.33 10.49,-12.38 14.81,-15.13 4.34,-2.76 9.04,-4.12 14.14,-4.12 5.37,0 10.66,1.83 15.86,5.48l-19.96 28.11c-3.67,-1.96 -6.77,-2.92 -9.25,-2.92 -4.73,0 -9.1,2.16 -13.04,6.44 -5.61,6.04 -11.01,17.36 -16.15,33.92l-10.79 34.71 -36.4 0 32.12 -103.35zm71.16 0l37.65 0 -2.03 65.48 39.28 -65.48 36.49 0 -72.16 103.35 -32.09 0 -7.13 -103.35zm126.28 -39.23l36.22 0 -8.36 26.88 -36.22 0 8.36 -26.88zm-12.19 39.23l36.22 0 -32.12 103.35 -36.22 0 32.12 -103.35zm101.11 62.92l33.1 4.18c-4.36,7.86 -9.56,14.67 -15.7,20.44 -6.09,5.74 -13.03,10.22 -20.76,13.41 -7.69,3.19 -16.74,4.78 -27.12,4.78 -10.04,0 -18.06,-1.03 -24.11,-3.05 -6,-2.06 -10.71,-5.38 -14.11,-9.96 -3.38,-4.55 -5.47,-9.92 -6.28,-16.1 -0.81,-6.17 0.36,-14.34 3.53,-24.53 3.3,-10.62 7.72,-19.48 13.23,-26.55 4.05,-5.21 8.83,-9.86 14.32,-13.97 5.49,-4.11 10.76,-7.2 15.84,-9.19 8.06,-3.19 17.59,-4.78 28.61,-4.78 15.44,0 26.24,3.02 32.47,9.03 6.22,6.04 9.16,14.83 8.84,26.42l-35.58 4.98c0.31,-4.41 -0.6,-7.73 -2.72,-9.99 -2.13,-2.22 -5.57,-3.35 -10.33,-3.35 -5.98,0 -11.56,2.36 -16.75,7.04 -5.16,4.71 -9.22,11.81 -12.19,21.37 -2.64,8.5 -2.79,14.93 -0.49,19.35 2.3,4.41 6.29,6.6 11.99,6.6 4.73,0 9.15,-1.33 13.18,-3.95 4.07,-2.65 7.73,-6.7 11.03,-12.18zm-58.55 56.62l6.26 -11.55c6.05,-1.49 11.5,-2.26 16.38,-2.26 10.13,0 16.55,1.89 19.24,5.64 2.68,3.78 3.24,8.23 1.65,13.34 -0.97,3.12 -2.85,6.34 -5.63,9.62 -2.76,3.32 -6.74,5.97 -11.86,8 -5.15,2.02 -11.46,3.02 -18.93,3.02 -6.76,0 -14.48,-0.83 -23.09,-2.52l3.71 -11.95c5.79,1.29 12.14,1.92 19.09,1.92 5.1,0 8.78,-0.73 11.04,-2.22 2.28,-1.49 3.79,-3.42 4.55,-5.84 0.58,-1.86 0.36,-3.48 -0.71,-4.85 -1.06,-1.36 -3.16,-2.02 -6.32,-2.02 -4.22,0 -9.34,0.56 -15.38,1.66zm99.44 -67.57c4.91,-15.8 13.81,-28.81 26.69,-39.03 12.88,-10.22 27.58,-15.33 44.08,-15.33 18.9,0 31.29,6.01 37.2,18.02 4.72,9.69 4.9,21.6 0.51,35.74 -4.95,15.93 -13.79,28.94 -26.57,39.13 -12.77,10.16 -27.67,15.23 -44.65,15.23 -15.14,0 -26.08,-4.22 -32.8,-12.68 -8.25,-10.45 -9.72,-24.16 -4.46,-41.09zm36.24 -0.07c-2.88,9.26 -3.3,16.1 -1.28,20.51 2.02,4.41 5.58,6.64 10.74,6.64 5.19,0 10.12,-2.19 14.8,-6.54 4.69,-4.35 8.53,-11.35 11.52,-20.97 2.8,-8.99 3.2,-15.67 1.2,-20.08 -2.01,-4.38 -5.48,-6.57 -10.46,-6.57 -5.25,0 -10.28,2.22 -15.09,6.67 -4.82,4.48 -8.62,11.25 -11.45,20.34zm67 22.77l36.97 -3.58c0.04,4.65 1.07,7.97 3.12,9.96 2.05,1.99 5.29,2.99 9.75,2.99 4.85,0 8.97,-1.13 12.35,-3.42 2.61,-1.66 4.3,-3.78 5.08,-6.31 0.89,-2.85 0.21,-5.08 -2.03,-6.64 -1.6,-1.09 -6.37,-2.46 -14.26,-4.08 -11.82,-2.39 -19.83,-4.61 -24.11,-6.67 -4.25,-2.03 -7.27,-5.51 -9.13,-10.35 -1.82,-4.88 -1.77,-10.42 0.17,-16.66 2.11,-6.8 5.73,-12.68 10.87,-17.59 5.15,-4.94 11.27,-8.63 18.36,-11.05 7.09,-2.42 15.97,-3.65 26.62,-3.65 11.22,0 19.25,0.93 24,2.82 4.78,1.89 8.33,4.81 10.69,8.76 2.34,3.98 3.65,9.33 3.92,16.1l-35.33 3.59c0.14,-3.29 -0.59,-5.71 -2.17,-7.27 -2.18,-2.06 -5.29,-3.09 -9.32,-3.09 -4.06,0 -7.28,0.8 -9.63,2.39 -2.35,1.59 -3.88,3.52 -4.59,5.77 -0.79,2.56 -0.2,4.45 1.73,5.74 1.92,1.33 6.72,2.49 14.32,3.52 11.58,1.49 19.85,3.58 24.91,6.24 5.03,2.66 8.34,6.44 9.9,11.38 1.59,4.94 1.45,10.35 -0.38,16.26 -1.86,5.97 -5.3,11.78 -10.36,17.42 -5.03,5.64 -11.61,10.12 -19.72,13.47 -8.11,3.35 -18.27,5.01 -30.47,5.01 -17.23,0 -28.68,-2.69 -34.31,-8.1 -5.64,-5.38 -7.96,-13.04 -6.94,-22.97z"/>
  <path class="fil3" d="M1240.22 301.35l44.59 12.36c-4.99,11.48 -11.47,21.09 -19.49,28.76 -7.98,7.71 -17.25,13.52 -27.89,17.43 -10.6,3.91 -23.61,5.88 -39.03,5.88 -18.74,0 -33.6,-2.39 -44.72,-7.15 -11.07,-4.79 -19.91,-13.2 -26.57,-25.21 -6.66,-12 -8.47,-27.42 -5.43,-46.15 4.06,-25 14.75,-44.22 32.07,-57.67 17.35,-13.41 39.86,-20.14 67.57,-20.14 21.66,0 38.09,3.84 49.24,11.55 11.12,7.71 18.44,19.54 21.85,35.52l-48.32 9.12c-0.9,-4.58 -2.08,-7.92 -3.53,-10.03 -2.43,-3.56 -5.62,-6.3 -9.6,-8.2 -4.01,-1.94 -8.66,-2.89 -13.98,-2.89 -12.09,0 -22.03,4.26 -29.81,12.74 -5.87,6.3 -9.92,16.23 -12.12,29.71 -2.72,16.76 -1.7,28.2 3.09,34.43 4.8,6.2 12.42,9.29 22.91,9.29 10.17,0 18.26,-2.5 24.28,-7.53 6.02,-5 10.96,-12.29 14.88,-21.83zm34.13 7.39c2.72,-16.76 11.37,-30.56 25.94,-41.4 14.57,-10.84 32.75,-16.26 54.53,-16.26 24.94,0 42.72,6.37 53.38,19.12 8.54,10.28 11.61,22.92 9.17,37.92 -2.75,16.9 -11.32,30.7 -25.76,41.51 -14.44,10.77 -32.89,16.16 -55.31,16.16 -19.98,0 -35.42,-4.47 -46.29,-13.45 -13.37,-11.09 -18.57,-25.63 -15.65,-43.58zm47.81 -0.07c-1.6,9.82 -0.53,17.07 3.19,21.76 3.72,4.68 8.94,7.04 15.75,7.04 6.85,0 12.83,-2.32 17.98,-6.93 5.15,-4.61 8.56,-12.04 10.22,-22.25 1.55,-9.54 0.5,-16.62 -3.18,-21.3 -3.69,-4.65 -8.8,-6.97 -15.36,-6.97 -6.93,0 -13.03,2.36 -18.32,7.08 -5.3,4.75 -8.71,11.93 -10.27,21.58zm99.57 -55.06l44.52 0 -2.59 15.95c7.49,-6.69 14.75,-11.44 21.73,-14.26 6.98,-2.82 15.1,-4.23 24.35,-4.23 9.93,0 17.52,1.55 22.82,4.65 5.3,3.1 9.27,7.71 11.96,13.84 8.65,-7.15 16.25,-12.04 22.83,-14.61 6.58,-2.57 14.4,-3.87 23.45,-3.87 13.33,0 23.17,3.49 29.52,10.49 6.35,6.97 8.34,17.92 5.92,32.78l-11.2 68.9 -47.8 0 10.18 -62.63c0.81,-5 0.33,-8.7 -1.48,-11.09 -2.54,-3.8 -6.24,-5.7 -10.96,-5.7 -5.6,0 -10.42,1.8 -14.45,5.39 -3.99,3.59 -6.65,9.36 -7.93,17.29l-9.22 56.75 -47.8 0 9.82 -60.41c0.78,-4.82 1,-8.1 0.64,-9.82 -0.55,-2.75 -1.96,-4.96 -4.2,-6.65 -2.21,-1.69 -5.03,-2.54 -8.39,-2.54 -5.49,0 -10.31,1.83 -14.42,5.46 -4.12,3.66 -6.85,9.65 -8.21,17.99l-9.1 55.98 -47.8 0 17.82 -109.63zm187.33 151.24l24.58 -151.24 44.76 0 -2.63 16.16c7.27,-6.83 13.71,-11.44 19.26,-13.84 7.45,-3.24 15.44,-4.86 23.89,-4.86 16.65,0 28.59,5.6 35.9,16.83 7.26,11.23 9.56,25.14 6.88,41.65 -2.97,18.27 -10.2,32.21 -21.69,41.82 -11.49,9.61 -24.8,14.4 -39.97,14.4 -7.37,0 -13.87,-1.09 -19.56,-3.27 -5.72,-2.22 -10.6,-5.46 -14.66,-9.79l-8.47 52.14 -48.28 0zm63.53 -96.07c-1.42,8.73 -0.38,15.17 3.05,19.4 3.44,4.22 8.34,6.34 14.66,6.34 5.52,0 10.49,-2.01 14.92,-6.05 4.38,-4.05 7.38,-10.91 8.95,-20.6 1.45,-8.94 0.56,-15.49 -2.65,-19.68 -3.24,-4.19 -7.63,-6.27 -13.27,-6.27 -6.08,0 -11.47,2.11 -16.24,6.34 -4.73,4.22 -7.88,11.05 -9.42,20.52zm130.93 -19.68l-44.95 -4.22c2.87,-7.04 6.25,-12.57 10.14,-16.58 3.9,-4.05 9.11,-7.53 15.72,-10.49 4.71,-2.15 10.99,-3.8 18.82,-4.96 7.84,-1.16 16.22,-1.76 25.15,-1.76 14.29,0 25.63,0.7 34.08,2.11 8.42,1.41 15.18,4.36 20.22,8.84 3.58,3.1 6.07,7.5 7.47,13.17 1.44,5.67 1.72,11.09 0.88,16.26l-7.87 48.44c-0.84,5.17 -1.14,9.22 -0.85,12.15 0.24,2.92 1.28,6.65 3.02,11.2l-44.72 0c-1.34,-2.82 -2.16,-4.93 -2.48,-6.41 -0.28,-1.48 -0.47,-3.77 -0.52,-6.9 -7.1,5.28 -13.92,9.05 -20.49,11.3 -8.94,3.03 -18.99,4.54 -30.16,4.54 -14.85,0 -25.65,-3.03 -32.35,-9.12 -6.74,-6.06 -9.37,-13.55 -7.92,-22.43 1.36,-8.34 5.23,-15.21 11.67,-20.6 6.44,-5.39 17.34,-9.4 32.7,-12.01 18.41,-3.17 30.38,-5.39 35.91,-6.69 5.53,-1.27 11.44,-2.92 17.71,-5 0.84,-5.18 0.22,-8.77 -1.88,-10.84 -2.07,-2.08 -6.14,-3.1 -12.23,-3.1 -7.81,0 -13.83,1.09 -18.11,3.31 -3.33,1.76 -6.3,5 -8.96,9.79zm37.74 21.97c-6.9,2.08 -14.05,3.91 -21.48,5.53 -10.06,2.29 -16.59,4.54 -19.51,6.76 -3.05,2.29 -4.8,4.89 -5.27,7.82 -0.54,3.34 0.33,6.09 2.59,8.2 2.3,2.11 5.97,3.17 11.05,3.17 5.32,0 10.48,-1.16 15.45,-3.45 4.94,-2.29 8.63,-5.07 11.09,-8.38 2.46,-3.31 4.12,-7.6 4.98,-12.89l1.1 -6.76zm56.48 -57.45l44.52 0 -2.9 17.85c7.83,-7.32 15.37,-12.53 22.68,-15.67 7.31,-3.13 15.82,-4.72 25.59,-4.72 13.21,0 22.94,3.45 29.3,10.39 6.32,6.9 8.31,17.6 5.96,32.07l-11.33 69.71 -48.04 0 9.8 -60.31c1.12,-6.9 0.47,-11.76 -1.95,-14.61 -2.42,-2.85 -6.23,-4.3 -11.43,-4.3 -5.72,0 -10.72,1.94 -14.91,5.77 -4.19,3.87 -7.12,10.77 -8.74,20.77l-8.56 52.67 -47.8 0 17.82 -109.63zm114.48 0l50.36 0 13.8 72.98 35.56 -72.98 47.04 0 -68.37 117.2c-7.77,13.31 -14.99,22.29 -21.59,26.93 -9.36,6.58 -22.5,9.86 -39.47,9.86 -6.89,0 -17.36,-0.85 -31.47,-2.46l1 -29.33c6.58,1.9 14.07,2.85 22.51,2.85 5.65,0 10.39,-1.13 14.24,-3.38 3.84,-2.22 7.42,-6.23 10.8,-12l-34.42 -109.66z"/>
  <path class="fil4" d="M1243.89 293.34l44.59 12.36c-4.99,11.48 -11.47,21.09 -19.49,28.76 -7.98,7.71 -17.25,13.52 -27.89,17.43 -10.6,3.91 -23.61,5.88 -39.03,5.88 -18.74,0 -33.6,-2.39 -44.72,-7.15 -11.07,-4.79 -19.91,-13.2 -26.57,-25.21 -6.66,-12.01 -8.47,-27.43 -5.43,-46.15 4.06,-25 14.75,-44.22 32.07,-57.67 17.35,-13.41 39.86,-20.14 67.56,-20.14 21.66,0 38.09,3.84 49.24,11.55 11.12,7.71 18.44,19.54 21.85,35.52l-48.32 9.12c-0.9,-4.58 -2.08,-7.92 -3.53,-10.03 -2.43,-3.56 -5.62,-6.3 -9.6,-8.2 -4.01,-1.94 -8.66,-2.89 -13.98,-2.89 -12.09,0 -22.03,4.26 -29.81,12.75 -5.87,6.3 -9.92,16.23 -12.12,29.71 -2.72,16.76 -1.7,28.2 3.09,34.43 4.8,6.2 12.42,9.29 22.91,9.29 10.17,0 18.26,-2.5 24.28,-7.53 6.02,-5 10.96,-12.29 14.88,-21.83zm34.13 7.39c2.72,-16.76 11.37,-30.56 25.94,-41.4 14.57,-10.84 32.75,-16.26 54.53,-16.26 24.94,0 42.72,6.37 53.38,19.12 8.54,10.28 11.61,22.92 9.17,37.92 -2.75,16.9 -11.32,30.7 -25.76,41.51 -14.44,10.77 -32.89,16.16 -55.31,16.16 -19.98,0 -35.42,-4.47 -46.29,-13.45 -13.37,-11.09 -18.57,-25.63 -15.65,-43.58zm47.81 -0.07c-1.6,9.82 -0.53,17.07 3.19,21.76 3.72,4.68 8.94,7.04 15.75,7.04 6.85,0 12.83,-2.32 17.98,-6.93 5.15,-4.61 8.56,-12.04 10.22,-22.25 1.55,-9.54 0.5,-16.62 -3.18,-21.3 -3.69,-4.65 -8.8,-6.97 -15.36,-6.97 -6.93,0 -13.03,2.36 -18.32,7.08 -5.3,4.75 -8.71,11.93 -10.27,21.58zm99.57 -55.06l44.52 0 -2.59 15.95c7.49,-6.69 14.75,-11.44 21.73,-14.26 6.98,-2.82 15.1,-4.22 24.35,-4.22 9.93,0 17.52,1.55 22.82,4.65 5.3,3.1 9.28,7.71 11.96,13.84 8.65,-7.15 16.25,-12.04 22.83,-14.61 6.58,-2.57 14.4,-3.87 23.45,-3.87 13.33,0 23.17,3.49 29.52,10.49 6.35,6.97 8.34,17.92 5.92,32.78l-11.2 68.9 -47.8 0 10.18 -62.63c0.81,-5 0.33,-8.7 -1.48,-11.09 -2.54,-3.8 -6.24,-5.7 -10.96,-5.7 -5.6,0 -10.42,1.8 -14.45,5.39 -3.99,3.59 -6.65,9.36 -7.93,17.29l-9.22 56.75 -47.8 0 9.82 -60.41c0.78,-4.82 1,-8.1 0.64,-9.82 -0.55,-2.75 -1.96,-4.96 -4.2,-6.65 -2.21,-1.69 -5.03,-2.54 -8.39,-2.54 -5.49,0 -10.31,1.83 -14.42,5.46 -4.12,3.66 -6.85,9.65 -8.21,17.99l-9.1 55.98 -47.8 0 17.82 -109.63zm187.33 151.24l24.58 -151.24 44.76 0 -2.63 16.16c7.28,-6.83 13.71,-11.44 19.26,-13.84 7.45,-3.24 15.44,-4.86 23.89,-4.86 16.65,0 28.59,5.6 35.9,16.83 7.26,11.23 9.56,25.14 6.88,41.65 -2.97,18.27 -10.2,32.21 -21.69,41.82 -11.49,9.61 -24.8,14.4 -39.97,14.4 -7.37,0 -13.87,-1.09 -19.56,-3.27 -5.72,-2.22 -10.6,-5.46 -14.66,-9.79l-8.47 52.14 -48.28 0zm63.53 -96.08c-1.42,8.73 -0.38,15.17 3.05,19.4 3.44,4.22 8.34,6.34 14.66,6.34 5.52,0 10.49,-2.01 14.92,-6.06 4.38,-4.05 7.38,-10.91 8.95,-20.59 1.45,-8.94 0.56,-15.49 -2.65,-19.68 -3.24,-4.19 -7.63,-6.27 -13.27,-6.27 -6.09,0 -11.47,2.11 -16.24,6.34 -4.73,4.22 -7.88,11.05 -9.42,20.52zm130.93 -19.68l-44.95 -4.22c2.87,-7.04 6.25,-12.57 10.14,-16.58 3.9,-4.05 9.11,-7.53 15.72,-10.49 4.71,-2.15 10.99,-3.8 18.82,-4.96 7.84,-1.16 16.22,-1.76 25.15,-1.76 14.29,0 25.63,0.7 34.08,2.11 8.42,1.41 15.18,4.36 20.22,8.84 3.58,3.1 6.07,7.5 7.47,13.17 1.44,5.67 1.72,11.09 0.88,16.26l-7.87 48.44c-0.84,5.17 -1.14,9.22 -0.85,12.15 0.24,2.92 1.28,6.65 3.02,11.2l-44.72 0c-1.34,-2.82 -2.16,-4.93 -2.48,-6.41 -0.28,-1.48 -0.47,-3.77 -0.52,-6.9 -7.1,5.28 -13.92,9.05 -20.49,11.3 -8.94,3.03 -18.99,4.54 -30.16,4.54 -14.85,0 -25.65,-3.03 -32.35,-9.12 -6.74,-6.06 -9.37,-13.55 -7.92,-22.43 1.36,-8.34 5.23,-15.21 11.67,-20.59 6.44,-5.39 17.34,-9.4 32.7,-12.01 18.41,-3.17 30.38,-5.39 35.92,-6.69 5.53,-1.27 11.44,-2.92 17.71,-5 0.84,-5.18 0.22,-8.77 -1.88,-10.84 -2.07,-2.08 -6.14,-3.1 -12.23,-3.1 -7.81,0 -13.83,1.09 -18.11,3.31 -3.33,1.76 -6.3,5 -8.96,9.79zm37.74 21.97c-6.9,2.08 -14.05,3.91 -21.47,5.53 -10.06,2.29 -16.59,4.54 -19.51,6.76 -3.05,2.29 -4.8,4.89 -5.27,7.82 -0.54,3.34 0.33,6.09 2.59,8.2 2.3,2.11 5.97,3.17 11.05,3.17 5.32,0 10.48,-1.16 15.45,-3.45 4.94,-2.29 8.63,-5.07 11.09,-8.38 2.46,-3.31 4.12,-7.6 4.98,-12.89l1.1 -6.76zm56.48 -57.45l44.52 0 -2.9 17.85c7.83,-7.32 15.37,-12.53 22.68,-15.67 7.31,-3.13 15.82,-4.72 25.59,-4.72 13.21,0 22.94,3.45 29.3,10.39 6.32,6.9 8.31,17.6 5.96,32.07l-11.33 69.71 -48.04 0 9.8 -60.31c1.12,-6.9 0.47,-11.76 -1.95,-14.61 -2.42,-2.85 -6.23,-4.3 -11.43,-4.3 -5.72,0 -10.72,1.94 -14.91,5.77 -4.19,3.87 -7.11,10.77 -8.74,20.77l-8.56 52.67 -47.8 0 17.82 -109.63zm114.48 0l50.36 0 13.8 72.98 35.56 -72.98 47.04 0 -68.37 117.2c-7.77,13.31 -14.99,22.29 -21.59,26.93 -9.36,6.58 -22.5,9.86 -39.47,9.86 -6.89,0 -17.36,-0.85 -31.47,-2.46l1 -29.33c6.58,1.9 14.07,2.85 22.51,2.85 5.64,0 10.39,-1.13 14.24,-3.38 3.84,-2.22 7.42,-6.23 10.8,-12.01l-34.42 -109.66z"/>
 </g>
</svg>
